<svg version="1" xmlns="http://www.w3.org/2000/svg" width="1197.333" height="1197.333" viewBox="0 0 898.000000 898.000000"><path d="M0 35v34.9l2.2 1.2c1.3.7 3.5 1.2 5 1.1 3.3-.3 4.4 1.3 2.6 3.5-.8 1.1-.9 1.4-.1 1 1.6-1 6.4.2 5.7 1.4-.6 1 .7 1.6 4.1 2.1 1.5.2 2.1 1.3 2.5 4.3.4 3.6.8 4 3 3.7 1.8-.1 2.1 0 1.1.7-1.1.7-.3 1.4 3.2 3 4.1 1.9 4.7 2.5 4.8 5.4 0 1.7.3 2.6.6 1.8.9-2.3 5-8 5.5-7.6.2.2 3.7.6 7.8.9 5.1.4 7.8 1 8.6 2.1 1.9 2.5 2.6 1.7 1-1.3-.8-1.5-1.7-3.9-2.1-5.5-.3-1.5-1.2-2.7-1.9-2.7-2.2 0-5.7-5-5.1-7.2.5-1.4.1-1.8-2-1.8-1.4 0-4.1-.7-6.1-1.5-3.2-1.3-3.4-1.6-2.2-3.7.7-1.3 1.4-2.4 1.5-2.6.2-.5 9.2 2.5 12.3 4.1 2.6 1.3 6.7 5.6 11.1 11.6 2.3 3.1 2.5 3.8 1.3 4.9-1.2 1.1-1.4 1-1.4-.3 0-.8-.6-1.5-1.4-1.5-.9 0-1.2.8-.8 2.5.4 2.2.8 2.4 4.6 2.1 4.5-.3 6.6.1 6.6 1.5 0 .5.9 1.8 2 2.9 1.6 1.6 1.8 2.5 1 4-.6 1.1-.6 2.1-.1 2.4.5.3 1.1 0 1.4-.8.3-.7 2.2-1.6 4.1-2 2.2-.4 3.6-1.3 3.6-2.2 0-1.2.3-1.2 2-.2 1.1.7 1.5 1.5.9 1.9-.6.3-.4 1.1.6 1.9 1 .8 1.4 2.2 1.1 3.6-.4 1.6-.1 2.3 1.4 2.7 1.6.4 1.8.2 1.1-1.2-1.3-2.4.3-4.9 2.2-3.3.7.7 1.7.9 2 .5.4-.3.7.1.7 1s.5 1.7 1 1.7c1.2 0 1.3-3.2.1-4.6-.4-.5-1.3-2.4-2-4.3-1.3-4.1 0-6.5 3.3-5.5 2.9.9 2.9.9 1.6 3.1-1 1.6-.8 2.8 1.4 7.2 2.9 5.6 4.5 6.1 6.1 1.6.7-2.1.7-2.9-.2-3.2-.7-.3-1.3-1.3-1.3-2.3 0-1-.9-2.1-1.9-2.5-1.1-.3-1.8-1.2-1.5-1.9.3-.7-.2-1.9-1.1-2.6-.9-.7-1.5-2.8-1.5-5.1 0-2.2-.4-3.9-1-3.9-.5 0-1-1.1-1-2.5 0-2.7 1-3.1 4.1-1.5 1.6.9 2.1.7 2.8-1.3 1.6-4.1 6.4-4.5 7.6-.7.4 1.3 1.4 1.8 3.3 1.7 2.1-.2 2.8.3 3 2.1.2 1.4 1.7 2.9 4.2 4.2 2.1 1.1 4.2 2.4 4.5 3 .4.6 1.1.8 1.6.5.5-.4.9-.2.9.3 0 .6 1.1 1.3 2.5 1.6 2 .5 2.5 1.3 2.5 3.6 0 1.6.7 4.5 1.6 6.3 1.5 3.1 1.5 3.6-.1 6.7s-1.8 3.2-3.1 1.6c-1-1.4-1-2.3-.2-3.6.9-1.4.9-2.4.1-4.2-1.2-2.3-1.2-2.3-1.2.6-.1 1.6-.4 2.6-.8 2.3-.9-.9-3.4 1.3-2.7 2.4 1 1.7-.7 3.1-2.2 1.8-1.2-1-1.2-1.4-.2-2.1.9-.6.3-.7-1.5-.3-1.7.3-2.6.2-2.3-.4.3-.5-.1-1.1-.9-1.5-3.8-1.4-.1 4 4.3 6.3l3.7 1.9-2.8.7c-1.6.4-3.9.3-5.2-.3-2.6-1.2-4 .4-2.4 2.9.7 1.1.9 1.1.9 0 0-.8.9-.5 2.4 1 2.1 2 2.4 3.1 2 7.4-.3 3.3-.1 4.3.4 3 .8-1.8.9-1.7 1.4.8.4 2.1.2 2.7-.8 2.3-.9-.4-.8.6.6 3.2 1.1 2.1 1.6 3.8 1 4-.6.2-.6 1 0 2.2 1 2 5.9 4 9.6 4 1.3 0 2.4.4 2.4 1 0 .5.7 1 1.5 1s1.5-.5 1.5-1.1c0-1.7 4.3.1 7.3 3.2 1.5 1.6 2.7 3.3 2.7 3.8s.8 1.1 1.8 1.3c.9.3-.2.5-2.6.5-2.3 0-4.5-.4-4.8-.8-.3-.5-1-.9-1.7-.9-.8 0-.8.3.1 1.2.9.9.7 1.4-.6 2.4-1.5 1.1-1.4 1.2.8.7 1.4-.2 4.4 0 6.7.5 3.4.8 4 .7 3.6-.4-.7-1.8.7-1.7 3.1.1 1.1.8 3.4 1.5 5 1.6 3 .1 3 .1.6.9-1.4.4-2 .8-1.3.9.6.1.9 1.1.6 2.3l-.5 2.3 2-2.3c1.1-1.2 2.3-2.2 2.7-2.2.3 0 .4 1 .1 2.2-.3 1.3-.3 1.8 0 1.1 1-2.1 3.5-.3 2.8 2.1-.6 1.8-.5 1.9.8.8.9-.7 2.4-1 3.4-.6 1.8.5 1.7.4-.1-1.1-1.1-.9-2.7-2-3.5-2.5-1.2-.7-1.2-1.1-.3-2.1 1-1 2.1-.9 5.2.6 2.2 1 5.3 1.5 7 1.3 1.6-.2 2.8-.1 2.5.4-1 1.6 1.6.8 3.5-1.1 1.8-1.8 1.7-1.9-.7-3.3-1.9-1.2-3.2-1.3-5.8-.5-2.4.7-4.1.7-5.9-.1-3.3-1.5-3.2-2.8.4-4 3-1.1 8-.4 11.9 1.6 1.2.7 3.1 1.6 4.2 2.2 2.4 1.2 6-.1 8.9-3.1 2.8-3 2.7-3.6-.9-4.4-1.6-.4-3-1.1-3-1.6 0-1.4 6.6-4 8.3-3.3 1.2.4 1.6-.7 1.9-5.3.4-5.2.1-6-2.1-8.1-1.5-1.2-3.5-2.7-4.5-3.3-1.6-.9-1.8-.9-1.3.5.4.9.2 1.6-.3 1.6-1.6 0-1.1-4 .5-4.7.9-.3 2.4.2 3.4 1.1 2.8 2.6 4.8 1.9 4.2-1.7 0-.4.8-.7 1.9-.7 1.1 0 2-.5 2-1 0-1.7 1.8-1.1 2.5.9.3 1.1 1.9 2.1 3.7 2.5 1.8.3 4.7 2.2 6.5 4.1 1.8 1.9 3.9 3.5 4.5 3.6.7.1.2.5-1.2.9-1.9.6-2 .8-.6.9 1 .1 3 1.3 4.4 2.8 2.5 2.7 5.2 3.9 5.2 2.3 0-.5-.6-1.1-1.2-1.3-.9-.4-.8-.6.2-.6.9-.1 2.4 1.9 3.7 4.6 2.1 4.7 2.1 4.7.2 7.4-1 1.5-1.9 2.9-1.9 3.2 0 .2 2.6.7 5.8 1 3.1.3 6.7.8 8 1.2 1.4.5 2.2.3 2.2-.4 0-.6-.9-1.1-2.1-1.1-1.5 0-1.9-.5-1.5-1.5.3-.8-.2-1.9-1.2-2.4-1.1-.6-1.7-2.4-1.8-5.3-.1-2.3-.3-5.2-.5-6.3-.4-1.8.1-2 4-1.7 2.6.3 4.1 0 3.7-.6-.3-.5-1.7-.7-3.1-.4-4.7.9-2.7-2.4 3-4.8 3-1.3 5.5-2.9 5.5-3.6 0-.7 1-1.4 2.3-1.6 1.8-.2 2.2-1 2.4-4.1 0-2.1-.5-4.4-1.3-5.1-1.1-1.1-1.1-1.6-.1-1.9.9-.4.9-.6-.1-.6-.7-.1-1.6.7-1.9 1.6-1.3 3.5-5.7 4.5-7.7 1.7-.9-1.2-1.7-1.3-4-.5-1.5.6-3.4 1.8-4.2 2.6-1.4 1.4-4 2-7 1.6-.7-.1-1.4.8-1.7 1.9-.3 1.4-1.3 2-3.2 2-1.4 0-3.6.5-4.7 1.1-1.6.9-1.9.8-1.5-.3.2-.7 1-1.2 1.6-1 .6.1 1.1-.4 1.1-1.1 0-.8.9-2.2 2-3.2s2-2.6 2-3.7c0-1.2.7-1.8 2.3-1.8 1.2 0 3.2-1.1 4.5-2.5l2.3-2.4-3.1.1c-3.7.1-5.5-1.4-4.6-3.8.4-.9.9-1.4 1.2-1.1.3.3 1.7.2 2.9-.3 1.8-.7 3-.4 4.7.9 1.8 1.5 3.1 1.7 6.3 1.1 2.2-.4 3.1-.8 1.9-.9-1.1 0-2.5-.6-3.2-1.3-.7-.7-1.2-.9-1.2-.5s-1.4 0-3.1-.9c-2.3-1.2-3.4-1.3-3.9-.4-.9 1.5-5.8.2-8.4-2.2-1.1-1-3.7-2.4-5.8-3-2.1-.6-4.5-1.9-5.4-3-1-1-2.8-1.8-4.1-1.8-1.3 0-5.3-1.4-8.9-3.1-3.5-1.7-8-3.2-10.1-3.2-4.1-.2-5.5-2.2-2.2-3.2 1.6-.5 2.6-.2 3.5 1 .8 1.1 1.8 1.4 2.6.9.7-.5 2.4-.7 3.8-.6 2 .2 2.2.1 1-.7-1.2-.9-1.1-1.1.7-1.1 1.2 0 2.4.4 2.7.8.2.4 2.8.6 5.6.5 4.3-.3 5.5.1 7.5 2.1 1.5 1.5 2.2 3.1 1.9 4-.7 1.7-.5 1.8 8.1 3.7 3.3.7 6.2 1.6 6.5 2 .3.4 2.8 1.3 5.5 2 2.8.6 5.7 1.4 6.5 1.7 3.9 1.4 13.5 2.9 13.8 2.1.2-.5 1-.9 1.8-.9.9 0 1.3-.4.9-1-.3-.5-1.2-.7-1.9-.4-.7.3-1.6-.2-1.9-1-.4-.9-1.3-1.6-2-1.6-.8 0-4-.8-7.3-1.9-3.2-1-8-2.5-10.6-3.2-2.6-.7-4.5-1.5-4.3-1.8.8-.7-4.6-3.1-7.1-3.1-1.3 0-2.4-.5-2.4-1 0-.6-1.1-1-2.5-1s-2.5-.5-2.5-1c0-.6-.8-1-1.7-1-1 0-2.7-.7-3.7-1.5-1.1-.8-2.7-1.5-3.5-1.5-1.3 0-1.3.2-.3.9 1.1.7 1.1.9-.2 1.4-1.7.7-2-.1-1-2.6.5-1.5 3.3-1.1 10.9 1.5 3.6 1.2 10.4 2.9 12.7 3.1.9.1 1.5.4 1.3.8-.7 1 4.3 2.9 7.4 2.9 1.5 0 5.6 1.2 9.1 2.6 6.3 2.5 13 2.7 13 .4 0-.6-.4-1-.8-1-.5 0-1.4-1.1-2-2.4-.9-2-.7-2.7 1.7-5 2.2-2.1 3.4-2.6 5.5-2 2.5.6 2.6.5 2.6-3.9 0-2.5.5-4.9 1-5.2.6-.4.8-1.1.5-1.6-.4-.5.2-1 1.2-1.1 1 0 2.4-.2 3.1-.2 1.3-.1 3.2-2.4 3.2-3.9 0-.4-.8-.7-1.8-.7-.9 0-3.6-1.7-5.9-3.9-4-3.6-4.2-4-3-6.5.6-1.4 1.8-2.6 2.5-2.6.6 0 1.2-.5 1.2-1.1 0-.5.5-.7 1.1-.4.6.4.7 1.9.4 3.5-.5 2.5-.1 3 3.9 5.4 5.2 3 8.1 3.3 8.3.8.4-4.7.3-5.9-.3-9-.3-1.7-1-3.2-1.5-3.2s-.4-.9.3-2c1.6-2.5 3.4-2.6 4.7-.3.7 1.2 1.1 1.3 1.1.5 0-.7.6-1.9 1.3-2.6 1-1.1 1.5-1 2.5.1.8.7.8 1.3.2 1.3-1.3 0-1.3 6 0 8 .8 1.3 1.2 1.1 2.7-1 2.3-3.2 3-5.8 2.5-9.3-.3-2.1-.7-2.5-1.3-1.6-.6 1.1-.9.9-.9-.7 0-2.7-4.4-6.8-6.4-6.1-.9.4-1.6.2-1.6-.3 0-.6-.5-1-1.2-1-.9 0-.9.3 0 1.2.7.7 1.2 1.8 1.2 2.6 0 2.2-4.4.9-5.5-1.6-.6-1.4-2.2-2.6-3.8-2.9-1.6-.3-3.6-1.7-4.5-3.1-1.5-2.3-1.5-2.5.3-3.8 1-.8 1.7-1.5 1.4-1.8-1.6-1.4-5-2.5-6.3-2-.9.3-2.6-.5-4.1-2-2.6-2.6-7.7-3.6-7.3-1.5.2.6-.2 1.3-.8 1.6-.6.2-1.4-.7-1.6-2-.5-2.4-.4-2.4 7.6-2.3 6.8.1 8.1-.2 8.4-1.6.2-.9-.5-2.4-1.5-3.5-1-1-2.7-2.8-3.7-4-1.9-2.2-1.8-2.3.5-3.2 2-.8 1.7-1-2.3-1-3.5-.1-4.8.3-4.8 1.3 0 .8-.6 1.7-1.2 1.9-1 .4-1 .8.1 1.5 1 .8.8 1.3-1 2.6-3.1 2.1-4.8 2-4.2-.3.4-1.6 0-1.8-2.8-1.6-1.8.1-4.4 1.2-5.7 2.4-1.3 1.1-3 2.1-3.7 2.1-.7 0-1.5.6-1.8 1.2-.3.9-1.2.6-3-1-2.1-2-2.4-3-2-6.3l.6-3.9h-16.4c-16 0-16.4.1-17.4 2.2-1.1 2.5-5.1 4.9-6.9 4.2-.6-.2-1.6-1.4-2.1-2.7-.6-1.2-2.2-2.6-3.6-3.1-2.8-1-7.1 0-5.4 1.2.6.4 1.5 1.6 2.1 2.7.6 1.1 2.7 2.8 4.7 3.8 3.4 1.6 3.7 2.1 3.7 6 .1 2.3 1 5.8 2 7.7 1 1.9 2.4 4.6 3.1 6 .6 1.4 1.5 3.3 2.1 4.3.9 1.8.2 5.7-1 5.7-1.3-.1-5.3-3.6-7.3-6.5l-2.1-3 .6 3.2c.5 2.8.3 3.3-1.4 3.3-1.6 0-2-.7-2-3s-.5-3-1.9-3c-1.6 0-2-1-2.6-6.1-.6-4.7-.4-6.3.6-7 .7-.4 1-1.1.7-1.5-.4-.3-1.5.2-2.5 1.2-1.7 1.7-1.8 1.7-2.1-.7-.2-1.3-.8-2.9-1.4-3.6-.5-.7-.7-1.7-.3-2.3.3-.5.2-1-.4-1-.5 0-1.2.6-1.4 1.2-.3.7-.6.3-.6-1-.1-1.7-.7-2.2-2.6-2.2-1.4 0-2.5-.5-2.5-1.1 0-.5-1-.9-2.2-.7-1.7.2-2.4-.3-2.6-2-.3-1.8-1-2.2-4.3-2.2-4.3 0-4.4.2-2.7 3 1.1 1.6.9 2.2-.7 3.4-3 2.3-5.8 2.1-5-.4.4-1.2.2-2-.5-2s-1-.8-.7-2c.5-1.9 0-2-8.2-2h-8.8l.5 3c.4 3-1 4.1-2.4 1.9-.5-.8-1-.6-1.6.6-.9 1.5-1.4 1.3-4-1.9-2.9-3.6-3-3.6-11-3.6-6.9 0-7.9.2-6.8 1.5.6.8 1 2.2.8 3.2-.3 1.4-.8 1.1-2.3-1.5L114.6 0H68v3.8c0 2.4-.7 4.7-1.8 6L64.3 12l-1.2-2.6c-.6-1.4-1.5-2.3-2-1.9-.6.3-1.1-1.2-1.3-3.2C59.5.7 59.3.5 55.7.2c-2.6-.2-3.7.1-3.5 1 .4 2-3.7 2.1-5.7.2C45.1 0 44.4-.1 42.9.8c-1.2.8-1.9.8-1.9.2 0-.6-7.4-1-20.5-1H0v35zM150 2c0 .5-.7 1-1.5 1s-1.5-.5-1.5-1c0-.6.7-1 1.5-1s1.5.4 1.5 1zM49 5.6c1.8 2.1 2.9 4.3 2.6 5.1-.3.8-.6 1.9-.6 2.4s-1.1.9-2.5.9c-1.6 0-2.5-.6-2.5-1.5 0-.8-.5-1.5-1.1-1.5-.7 0-.9-1-.5-2.8.6-2.6.6-2.6-.9-.8C42.3 8.9 42 9 42 7.9c0-.9.3-1.9.8-2.3.4-.4.8-1.2.8-1.7.3-1.7.4-1.9 1.3-1.9.5 0 2.3 1.6 4.1 3.6zm185.5 1.9c0 2.2-.8 4-2 4.9-1.1.8-2.1 1.4-2.1 1.3-1-1.3-4-8.6-3.4-8.2.5.3 1.1.1 1.5-.5.3-.5 1.9-1 3.4-1 2.5 0 2.7.3 2.6 3.5zm-78.2.9c4.2-.4 3.7-.1-3.3 1.7-1 .3-1.5-.4-1.7-2.1-.1-1.4.1-1.8.3-.9.4 1.3 1.5 1.6 4.7 1.3zm61.3-.2c.5.7.2.9-.9.5-.9-.3-1.8-.1-2.1.6-.2.7-.5.4-.5-.6-.1-1.9 2.4-2.3 3.5-.5zm-108.8 1.9c.7 1.1 1 2.9.7 3.9-.6 1.8-.8 1.9-3.1.4-2.6-1.8-3-3.4-1.2-5.2 1.6-1.6 2.1-1.5 3.6.9zM58 17.5c0 .7.7 1.8 1.5 2.5s1.5 1.9 1.5 2.7c0 .8.7 2.1 1.5 3 2 2 1.3 2.7-2 1.9-4.6-1.2-6.5-4.1-6.5-9.8 0-5 0-5.1 2-3.3 1.1 1 2 2.4 2 3zm160.1-1.2c-.8 4-4.1 4.6-5.8 1-1.6-3.4-.9-4.3 3.1-4.1 3.1.1 3.2.3 2.7 3.1zm-88.6-.3c.4.6 1.5.8 2.6.5 1.1-.4 1.9-.2 1.9.5 0 .6.5.8 1.2.4.7-.5.9-.2.5.8-.3 1 .7 2.8 2.9 4.9 1.9 1.8 3.4 3.9 3.4 4.6 0 .7.9 2.8 2 4.8s2 4.7 2 6.2c0 2.3-.3 2.5-3.2 1.9-1.8-.3-3.9-1.5-4.6-2.5-1.3-1.9-1.4-1.9-3.8.2-1.4 1.2-2.4 3.1-2.4 4.8 0 1.5-.5 3.1-1 3.4-1.2.8-4.5-2.7-6.6-7l-1.5-3 .5 4.5c.4 3.4 0 5.1-1.3 6.9-2.1 2.7-4.2 2.1-3.4-1 .3-1.2.1-2.4-.6-2.8-1.6-1-.2-4.4 1.5-3.7 2.1.8 2.7-3.1.8-5.9-1.1-1.8-1.5-3.7-1.1-6.5.3-2.2.1-4-.4-4s-.9-1.8-.9-4c0-3.3.4-4 1.9-4 1 0 2.2.7 2.5 1.6.8 2.2 5.2 1.5 4.8-.9-.3-1.9 1.3-2.3 2.3-.7zm133.2.6c-.3.3-1.2.4-1.9.1-.8-.3-.5-.6.6-.6 1.1-.1 1.7.2 1.3.5zm-74 6.1c-.3 1-.5.4-.5-1.2 0-1.7.2-2.4.5-1.8.2.7.2 2.1 0 3zm86.4.9c1 1.3 1 1.7-.2 2.5-2 1.2-2.6 1.1-3.3-.7-1.2-3.2 1.2-4.5 3.5-1.8zM49.4 29.2c.4 1.7.2 2.8-.4 2.8-.5 0-1-1.4-1-3.2 0-3.6.4-3.5 1.4.4zm3-.2c1.2 2.6 1.2 3 0 3-.8 0-1.4-.6-1.4-1.4 0-.8-.3-2.1-.6-3-1.1-2.8.4-1.7 2 1.4zm125.1 0c.3.5.1 1-.4 1-.6 0-1.1-.5-1.1-1 0-.6.2-1 .4-1 .3 0 .8.4 1.1 1zM138 44.9c0 .6-.5 1.3-1.1 1.7-1.4.8-2.9-1.4-2.9-4.4V40l2 2c1.1 1.1 2 2.4 2 2.9zm24-3.4c0 .8-.7 1.5-1.5 1.5s-1.5-.7-1.5-1.5.7-1.5 1.5-1.5 1.5.7 1.5 1.5zm58.5 2.5c0 1.5-.6 2.6-1.6 2.8-1.9.3-3.1-2.1-2.2-4.3.9-2.5 3.8-1.3 3.8 1.5zm-72.1 3.8c-.4 1.5-.7 3-.6 3.4.4 1.9-2.6.5-3.6-1.6-1.1-2.4-.6-6.9.7-6.2.4.3 1.3.1 2.1-.4 1.9-1.2 2.5 1 1.4 4.8zm-121.6 0c.2 1.4-.2 2.2-1.1 2.2-1.7 0-3-2.7-2.1-4.1.9-1.6 2.9-.4 3.2 1.9zm155.6-2.2c.9.3 1.6 1.1 1.6 1.8 0 1.4 8.4 8.6 10 8.6.8 0 1 1.2.5 3.9-.6 3.4-.4 3.9 1.6 4.4 1.8.5 2.1 1.1 1.6 3.5-.4 2.1-.1 3.2 1.4 4.3 2.7 1.9 4 4.4 3.3 6.3-.9 2.4-1.9 1.9-3.7-1.9-1.6-3.4-3.7-4.7-3.7-2.4 0 .6-.7.8-1.6.5-.8-.3-1.2-.2-.9.4.3.6-.1 1.3-.9 1.6-1.2.4-1.3 1-.4 2.3.6 1 .8 3 .4 4.6-.6 2.2-1.1 2.6-2.9 2.1-1.2-.4-2.8-.8-3.5-1-.8-.1-1.8-.9-2.3-1.7-.8-1.2-1-1.2-1.8 0-.6.9-2.2 1.2-5.2.8-8.2-.9-10.1-3-5.4-6.1 2.9-1.9 5.2-2.1 5.8-.4.3 1 .8.9 2-.2 2-1.9 3.3-7 1.8-7-.6 0-1.1.6-1.2 1.2 0 1-.2 1-.6 0-.2-.6-.9-1-1.4-.6-.5.3-.9-.4-.9-1.5 0-1.2-.4-2.1-.8-2.1-1 0-5.2-7.3-5.2-8.9 0-2 1.5-1.1 3.2 2 1.9 3.2 3.8 3.1 3.8-.2 0-1.1-.5-1.7-1-1.4-.7.4-.9-.9-.5-3.7.4-3.5.4-3.9-.5-1.9-.8 1.8-1.3 2.1-2.4 1.2-.7-.6-2.1-.8-3.1-.5-1.3.5-1.6.2-1.3-1.7.1-1.3 1-2.5 1.8-2.5.8-.1 1.7-.3 2-.4 2.4-.9 5.5-.8 6.6.1 1.1.9 1.4.6 1.4-1.5 0-2.8.1-2.9 2.4-2zM88 49.5c0 3-1.5 3.3-2.3.5-.4-1.6.1-2.3 2.1-2.9.1-.1.2 1 .2 2.4zm184 2.2c0 2.2-5.1 1.6-5.7-.7-.3-1.1-1-2-1.7-2-.6 0-.4-.4.4-1 1.7-1 7 1.7 7 3.7zM10 48.4c0 .3-.4.8-1 1.1-.5.3-1 .1-1-.4 0-.6.5-1.1 1-1.1.6 0 1 .2 1 .4zm112.5 7.5c-.3.5-.1 1.2.5 1.6 1.8 1.1 1.1 3.1-1.5 4.3-3.3 1.5-5.7.5-4.9-2 .4-1.2.1-2.4-.7-3-1-.7-.5-.8 1.4-.4 1.5.4 2.7.2 2.7-.4 0-.5.7-1 1.6-1 .8 0 1.3.4.9.9zM246 56c3.9 2.1 3.3 11-.8 11-2.9 0-5.5-3.8-4.7-6.9.6-2.5 2.3-5.1 3.2-5.1.2 0 1.3.4 2.3 1zm-37.7 1.7c1.3 1.5 1.3 2.1.2 3.6-1.3 1.8-1.4 1.8-3.4-.2-1.2-1.2-2.1-2.8-2.1-3.6 0-2.1 3.3-1.9 5.3.2zM68.8 60.8c.2 1.4-.2 2.2-1.2 2.2-1.9 0-2.9-1.7-2.2-3.6.8-2.2 3-1.2 3.4 1.4zm154.2-.1c2.7 1.8 4.9 4.3 5 5.5 0 1.2-1.7.9-3.2-.5-.7-.7-2.5-2.1-4-3.1-1.6-1-2.8-2.2-2.8-2.7 0-1.4 2.3-1 5 .8zm-92.1 2.7c.9 1 .9 1.6.1 2.1-1.7 1.1-4-.3-3.4-2 .8-1.9 1.8-1.9 3.3-.1zm81.8 1.8c3.7 1.3 4.3 4.2 2.1 9.1-1.1 2.1-1.8 2.5-3.8 2-4.6-1.2-7.1-6.2-5.4-10.7.7-1.9 2.6-2 7.1-.4zm62.8.8c.3.5.1 1-.4 1-.6 0-1.1-.5-1.1-1 0-.6.2-1 .4-1 .3 0 .8.4 1.1 1zM123 70.5c0 2.5-2.3 3.5-3.5 1.5-1-1.6.2-4 2-4 .9 0 1.5.9 1.5 2.5zm17.4-.9c.9.3 1.6 1.5 1.6 2.6s.5 2.8 1 3.8c.7 1.3.7 2.1 0 2.5-.7.4-.1 1.9 1.5 4.1 3 3.9 2.6 7.8-.8 8.9-1.9.5-2 .7-.6 1.7 1.4.9 1.3 1.3-.5 3.4-2.4 2.7-3.6 1.6-3.6-3.4 0-3.3-3.6-8.2-6-8.2-1.6 0-4.9-4.1-5-6.1 0-1.9 3.1-1.9 5.7.1 1.7 1.4 1.7 1.4.1-.5-2.1-2.6-2.1-8.3.1-8.8 2.6-.7 4.8-.7 6.5-.1zm18.3 6.8c-.5 1.7-4.7 2-4.7.3 0-2 .9-2.6 3.1-2 1.1.3 1.8 1.1 1.6 1.7zM247 85c1.3.9 1.3 1 0 1-.8 0-2.2-.5-3-1-1.3-.9-1.3-1 0-1 .8 0 2.2.5 3 1zM88 87c0 1.1-.7 2-1.5 2s-1.5-.2-1.5-.4-.3-1.1-.6-2c-.4-1.2 0-1.6 1.5-1.6 1.4 0 2.1.6 2.1 2zm-15.6.8c.2.4-.5.9-1.7.9-1.7.2-1.9 0-.7-.7 1.8-1.2 1.8-1.2 2.4-.2zM48 90.1c0 .5-.9.9-2 .9-1.9 0-2.6-1.1-1.4-2.3.8-.8 3.4.3 3.4 1.4zm123.4-.6c2 .9 4.2 2.7 4.8 4 .6 1.4 1.8 2.5 2.7 2.5.9 0 2.4.9 3.4 2 1.8 2.1 9.7 2.9 9.7 1 0-.6.6-1 1.4-1 .8 0 1.7-.6 2-1.3.3-.8 1.1-.5 2.5 1.2 1.2 1.2 1.8 2.7 1.5 3.2-.3.5.4.9 1.5.9s2.3.4 2.6 1c.3.5 2.1 1 4 1s3.6.4 3.9.8c.3.5 1.8.7 3.3.5 3.1-.4 6.7 1.5 4.6 2.4-.7.2-1.3 1.3-1.3 2.3 0 2.6-1.2 3.1-6.3 2.4-4.4-.6-7.9-2.8-9-5.6-.4-.9-.8-1-1.4-.2-.4.6-1.6 1.5-2.7 2.1-1.7.9-1.6 1.3 1.8 3.9 4.5 3.6 4.6 5.1.2 5.6-1.9.2-3.2 0-3-.4.3-.4-.1-.8-.8-.8-.9 0-1-.2-.2-.8.8-.5.4-1.3-1.3-2.5-2.4-1.9-2.4-1.9-3 .2-.3 1.2-1 2.1-1.5 2.1s-.6.4-.3 1c1.4 2.2-3.7.8-6.3-1.8-2.4-2.3-2.7-3.2-2.1-6 .4-2.2.2-3.7-.6-4.5-3.4-3.2-5.7-4.7-7.3-4.7-1.3 0-1.4-.2-.3-.9 1.5-.9.8-1.5-2.9-2.5-3.1-.7-6.2-4.9-5.4-7 .8-2 1.3-2 5.8-.1zM192 89c0 .5-.2 1-.4 1-.3 0-.8-.5-1.1-1-.3-.6-.1-1 .4-1 .6 0 1.1.4 1.1 1zm-38 5.6c0 .8-.4 1.4-1 1.4-.5 0-1-.9-1-2.1 0-1.1.5-1.7 1-1.4.6.3 1 1.3 1 2.1zm76 12.9c0 .8-.7 1.5-1.6 1.5-1.4 0-1.4-.3-.4-1.5.7-.8 1.4-1.5 1.6-1.5.2 0 .4.7.4 1.5zm-93.6 2.9c.9-.3 1.6-.1 1.6.4 0 .6-1 1.3-2.2 1.5-2 .4-1.9.4.5.6 2.9.1 3.8 2.1.9 2.1-1 0-2.6.6-3.7 1.3-2.9 1.9-5 1.5-5.3-1.1-.5-3.3 2.5-6.4 4.9-5.2.9.6 2.5.7 3.3.4zm91.6.8c2.9 1.7 4 3 4 4.7 0 2.2-.1 2.3-2.3.8-2.1-1.4-2.5-1.3-4.8.4-3.3 2.5-4.7 2.4-6.1-.6-.8-1.9-.8-3.1 0-5 1.4-3.1 4.1-3.2 9.2-.3zm-33.3 5.3c0 .8-.4 1.2-.9.9-.4-.3-.8-.9-.8-1.5 0-.5.4-.9.8-.9.5 0 .9.7.9 1.5zM129 126c0 .5-.2 1-.4 1-.3 0-.8-.5-1.1-1-.3-.6-.1-1 .4-1 .6 0 1.1.4 1.1 1zm23 6.3c0 .8-1.1 1.9-2.5 2.5-1.4.6-2.4 1.7-2.3 2.4.3 1.4-5.5 2.7-12.4 2.7-3.5.1-4.8-.3-4.8-1.3s1.6-1.7 4.8-2.2c2.6-.4 3.9-1 3-1.2-1-.2-1.8-.8-1.8-1.3 0-1.2 2.3-1.2 3.6.1.9.9 8.5-.7 10-2.3 1.2-1.1 2.4-.8 2.4.6zm46.4 7.6c.3.4-.1 1.6-.8 2.7-1.3 1.7-1.7 1.7-4 .4-2.8-1.4-2.5-2.5.9-3.3 3.2-.8 3.4-.7 3.9.2z"/><path d="M184.4 79.6c-.7.3-1 1.4-.7 2.4.5 1.8.7 1.8 2.9.3 1.3-.8 2.4-1.9 2.4-2.4 0-.9-2.7-1.1-4.6-.3zM243.6 59.9c-.5.8-.2 2 .8 2.9 1.7 1.7 1.9.9.7-2.2-.6-1.5-1-1.6-1.5-.7zM208.7 69.5c-.8 1.8 1.1 3.1 2.5 1.7 1.1-1.1.3-3.2-1.2-3.2-.4 0-1 .7-1.3 1.5zM187.8 108.7c1.2.2 3 .2 4 0 .9-.3-.1-.5-2.3-.4-2.2 0-3 .2-1.7.4zM221 114.4c0 .9.9 1.4 2 1.3 1.1-.1 2-.7 2-1.4s-.9-1.3-2-1.3-2 .6-2 1.4zM247 .9c0 2.2 1.3 4.1 2.9 4.1 1.3-.1 1.3-.2-.3-1.2-1.9-1.1-1.9-1.1-.1-2.4 1.8-1.3 1.8-1.4-.3-1.4-1.2 0-2.2.4-2.2.9zM574 .4c0 .2.7.7 1.6 1 .8.3 1.2.2.9-.4-.6-1-2.5-1.4-2.5-.6zM579 2c0 1.3.5 2 1.3 1.7.6-.2 1.2-1 1.2-1.7s-.6-1.5-1.2-1.8c-.8-.2-1.3.5-1.3 1.8zM585.6 4.1l-2.7 4.1 2.3-.7c2.2-.7 2.3-.7.3.8-1.1.9-1.7 1.9-1.2 2.3 1 1 2.7-.8 3.2-3.5.2-1.3 1.1-3.4 2-4.7 1.3-2 1.3-2.4.2-2.4-.8 0-2.7 1.8-4.1 4.1z"/><path d="M592.4 3.2c.3 1.7.3 2.9 0 2.5-.4-.3-1.5 1-2.6 3.1-1.1 2-2.7 4.9-3.5 6.4-1.8 3.5-3.2 4.3-3.9 2.4-.4-1.1-1.9-1.6-4.4-1.6-3 0-3.9.4-4.3 2.1-.8 2.9.3 5.6 1.4 3.7.6-.9.9-.8.9.7 0 1.2.4 2.5.9 3 1.4 1.6 2.1 5.9 1.2 7.4-.9 1.4-.3 5.1.8 5.1.4 0 1.8-2.9 3-6.5 1.3-3.6 2.7-6.8 3.2-7.1.5-.3.9-1.8.9-3.4 0-1.6.6-3.3 1.3-3.7 1.9-1.2 4.5-5.6 6.2-10.5 1.9-5.5 1.9-6.8-.1-6.8-1.3 0-1.5.7-1 3.2zm-14.7 15.3c0 .8-.4 1.5-.9 1.5-.4 0-.8-.7-.8-1.5s.4-1.5.8-1.5c.5 0 .9.7.9 1.5z"/><path d="M598 .9c0 .5-.5 2.2-1.2 3.8-.6 1.5-1.3 3.9-1.5 5.2-.2 1.3-1 3.3-1.7 4.5-.7 1.1-2.1 4.6-3 7.6-.9 3-3.2 8.4-5 12-1.8 3.6-6.1 12.1-9.5 19-9.9 19.8-10.4 20.7-13.2 24-2.5 2.8-4.7 4.2-3.4 2 .7-1.2-.8-1.4-1.9-.3-.4.5-1.1.8-1.5.8-.4 0-2.6 1.9-4.8 4.2-2.2 2.3-4.3 3.9-4.7 3.6-.3-.4-.6.1-.6.9 0 .9-.6 1.9-1.2 2.1-.9.4-.8.6.2.6.8.1 2.8-1 4.4-2.4 1.6-1.4 3.5-2.5 4.2-2.5.7 0 2.1-1.1 3.2-2.5 3.2-4.1 3.3-2.9.2 3.1-3 5.9-12 16.6-12 14.4 0-2.5-4.5 1.7-5.1 4.8-.4 1.8-.2 2.9.2 2.6.5-.3.9-1.3.9-2.4 0-1 .7-2 1.5-2.4.9-.3 1.5 0 1.5.9 0 .8-.4 1.5-1 1.5-.5 0-1 .8-1 1.9 0 1.1-1.3 2.5-3.2 3.4-3.6 1.7-7 5.2-6.1 6.1.4.3 0 .6-.9.6-1.4 0-3.8 3.8-3.8 6 0 3.2-23.2 27.4-34.5 36.2-1.7 1.2-3.9 3.2-5 4.4-3 3.2-26 20.4-33.8 25.2-7.9 5-23.5 13.7-35.7 20-4.6 2.4-8.7 4.6-9 5.1-1 1.4-17.6 8-41 16.1-9.7 3.3-13.2 4.1-53 11.6-17.9 3.3-86.7 1.1-110-3.6-2.5-.5-7.2-1.4-10.5-2.1-29.9-5.9-57.1-15.4-81.5-28.6-4.7-2.5-12.8-6.9-18-9.6-5.2-2.8-9.7-5.3-10-5.7-.3-.3-2.3-1.7-4.5-3-3.4-2-15.9-11.3-17.5-13-.3-.3-2.7-2.1-5.5-4-2.7-1.9-5.6-4-6.3-4.7-.7-.7-1.7-1.3-2.1-1.3-.4 0-2.2-1.5-4.1-3.3-1.9-1.7-9-8-15.6-13.9-6.7-5.9-15-14-18.5-18-3.5-3.9-7.6-8.5-9.1-10.2l-2.7-3.1L.3 254c.2 107.5.5 135.5 1.5 135.6.6.1 1.9.2 2.7.3 1 .1 1.5 1.2 1.5 3.1 0 2.7-.3 3-3 3H0v25.9l2.8.3c2.4.3 2.7.7 2.7 3.8 0 3.1-.3 3.5-2.7 3.8l-2.8.3V898h898V0H748c-92.4 0-150 .4-150 .9zm282.4 174.7c1.5 3.9 1.4 3.9-29.2 4.2-16.3.2-42.1.7-57.2 1.3-15.1.5-34.7 1.2-43.5 1.5-12.6.4-17 1-20.7 2.5-5.6 2.3-5.8 2.3-5.8.4 0-.9 2.3-2.5 5.4-3.9 7.7-3.4 28.7-4.5 129.1-6.9 5.5-.2 12.5-.4 15.6-.5 4.4-.2 5.8.2 6.3 1.4zm-95.6 15.6c.7.7 3.7 1.2 6.6 1.2 5.4 0 5.5.1 6.1 3.4.7 3.7-.1 7.2-1.6 7.2-.6 0-1.9-.5-3-1.1-1.3-.6-2.5-.7-3.2-.1-.7.5-8.4 1-17.2 1-8.8.1-18.2.4-20.9.8-3.6.4-5.1.3-5.7-.7-1.2-1.9-1.1-10.6.1-11.4.6-.4 2.6.4 4.6 1.6 2.9 1.8 3.8 1.9 4.4.8.5-.7 2.4-1.4 4.2-1.5 1.8-.1 4.3-.6 5.6-.9 1.6-.6 2.2-.3 2.2.9 0 1.1.7 1.4 2.8 1.1 1.5-.3 4.4-.7 6.5-.8 2.1-.2 4.3-.9 4.9-1.5 1.5-1.5 2.1-1.5 3.6 0zM759 210c0 2.1-2.4 2.8-3.5 1-.8-1.4.3-3 2.1-3 .8 0 1.4.9 1.4 2zm79.4 12.6c2.3.9 2 4.2-.5 4.9-3 1-5.7-1.8-3.9-3.9 1.4-1.8 2.1-1.9 4.4-1zm-20.6 3c.3 2.4-1.6 3.5-4.7 2.7-2.3-.6-2.9-3.8-.8-4.7 2.5-1 5.2-.1 5.5 2zm-66.5.5c.3 1.2 0 2.2-.9 2.6-1.9.7-4.4-1.5-3.7-3.3.8-2.1 4-1.7 4.6.7zm55.7.3c0 1.6-1.9 2.5-3.7 1.8-2.3-.8-1.4-3.2 1.2-3.2 1.5 0 2.5.6 2.5 1.4zm-90.6 1.8c.3 1.3.6 6.5.6 11.6 0 7.1-.3 9.3-1.2 9-1.3-.5-3.3-19-2.3-21.5.7-2 2.2-1.5 2.9.9zm102.6 8.9c1.7 3.1.5 5.1-2.7 4.7-2.3-.2-2.9-.8-3.1-3.6-.3-2.8 0-3.2 2.2-3.2 1.5 0 3 .8 3.6 2.1zm21.1-1.1c3.8 2.1 1.7 5-3.7 5-1.9 0-2.4-.5-2.4-2.4 0-3.3 2.6-4.4 6.1-2.6zm-45.1 2.9c0 3.4-1.2 4.5-4 3.6-2.2-.7-2.8-5-.7-5.8 3.3-1.4 4.7-.7 4.7 2.2zm-23.2 1.3c-.2 2.8-.7 3.3-2.8 3.3-1.6 0-2.6-.6-2.8-1.8-.6-3 .6-4.7 3.3-4.7 2.4 0 2.6.3 2.3 3.2zm-27.3 1.3c0 2.1-.5 3.1-1.8 3.3-3.9.8-6.7-5.1-2.9-6.1 3.5-1 4.7-.2 4.7 2.8zm76.7 11c.8 3.1-.4 4.7-3.2 4.2-1.5-.2-3-4.4-2.2-6.5.8-2.4 4.5-.9 5.4 2.3zm-86.4 3c1.7 3.6 1.7 3.6-3 3.3-4.6-.3-5.7-1.7-3.3-4.2 2.4-2.3 5-2 6.3.9zm-10 2.3c.3 1.8-.5 2.4-5.3 3.7-3.1.9-6.3 1.4-7.2 1.1-2.7-1.1.9-5 5.8-6.3 5.4-1.4 6.3-1.2 6.7 1.5zm-18.3 5.2c0 2-.5 2.5-2.5 2.5s-2.6-.6-2.8-2.8c-.3-2.6-.1-2.8 2.5-2.5 2.2.2 2.8.8 2.8 2.8zm111.6 4.2c.5.7.9 2.3.9 3.5 0 1.9-.4 2.1-3.7 1.7-5.8-.8-6-1-5.7-4.1.1-1.5.2-2.9.3-3 .5-.8 7.6.8 8.2 1.9zm-669.3 1.5c4.7.8 4 2.9-1.3 3.6-5.3.8-7.5.1-7.5-2.2 0-2.5 1.1-3.3 3.5-2.6 1.1.3 3.5.8 5.3 1.2zm681.7-.7c.3.5 2.6 1 5 1 3.7 0 6.5 1.3 5.3 2.5-.1.2-3.2.5-6.8.6-6.4.3-6.5.2-6.8-2.4-.3-2.7 1.9-3.9 3.3-1.7zm-708 2c0 1.2-1.5 1.5-6.5 1.7-5.9.1-9-.8-9-2.6 0-.4 3.5-.7 7.8-.7 6.1.1 7.7.4 7.7 1.6zm14.3.2c.3 1.6-.5 1.8-5.7 1.8-5.5 0-6.1-.2-6.1-2 0-1.9.5-2.1 5.7-1.8 4.6.2 5.9.7 6.1 2zm628.2-.8c0 .3-.4.8-1 1.1-.5.3-1 .1-1-.4 0-.6.5-1.1 1-1.1.6 0 1 .2 1 .4zm-574 9.5c1.3 2.5 1.3 2.8-.5 3.5-1.7.6-4.5-1.9-4.5-4s3.8-1.7 5 .5zm534.5 8.2c1.2 3.6-2.9 5.6-10.2 5-1.6-.1-1.7-2.5-.3-5.2 1.6-2.9 9.6-2.7 10.5.2zm-18.5 4.3c0 3.2-1.3 4.6-4.1 4.6-3.3 0-3.8-1.9-1.3-4.4 1.9-2 5.4-2.1 5.4-.2zm-604 6.1c0 2.6-.5 3.4-2.4 3.9-5.9 1.5-7.7-3.2-2.4-6.4 3.9-2.3 4.8-1.9 4.8 2.5zm23.8-.3l.3 3.8h-5.4c-6.4 0-8.2-1.4-6.8-5.3.9-2.3 1.5-2.5 6.3-2.3l5.3.1.3 3.7zm24 .6c.3 3 .1 3.2-2.5 3.2-1.5 0-4.5.3-6.5.6-2.1.3-4.6.3-5.5-.1-1.7-.7-1.6-.8.2-1.5 1.1-.5 3.7-.9 5.8-.9 3.3-.1 3.7-.4 3.7-2.7 0-2.1.4-2.5 2.3-2.2 1.7.2 2.3 1.1 2.5 3.6zm7.7.7c0 2.5-4 3.3-4.9 1-.9-2.4.2-3.7 2.7-3.3 1.4.2 2.2 1 2.2 2.3zm293 15.9c9.5 1.7 10 1.9 19 6.2 8.3 4 16.4 10.9 14.7 12.6-.8.8-2.6.4-6.9-1.5-6.2-2.7-11.1-4.1-18-5.1-7.2-1-4.8.9 3.5 2.9 4.2 1 10.5 2.8 14 4.1 3.4 1.3 6.6 2.3 7 2.2.4-.1 2.7.8 5.2 2s5.1 2.2 5.8 2.2c1.2 0 5.3 2 6.2 3.1.3.3 2.5 1.6 5 3 2.5 1.3 5.1 3 5.8 3.6.7.7 1.8 1.3 2.3 1.3 3 0 38.9 35.5 38.9 38.6 0 .3 1.7 3.1 3.8 6.2 4.6 6.8 8.2 14.4 8.2 17.2 0 1.1.4 2 .8 2s1.4 2.1 2.1 4.7c.7 2.7 2 6.7 2.7 9.1 1.6 5 1.8 9.1.4 11.2-.8 1.3-1 1.3-1-.1 0-.9-2.2-3.5-4.9-5.7-4.7-4-8.1-5.3-8.1-3.2 0 .5.5 1 1 1 .6 0 1 .5 1 1.1 0 .8-.4.8-1.2.1-.7-.5-4-1.3-7.3-1.7-6.9-.8-14.3-3.7-15.1-5.9-.3-.9-1.4-1.6-2.4-1.6s-2.1-.7-2.4-1.6c-.5-1.3-.9-1.4-2.1-.4-.8.7-1.5 1.9-1.5 2.6 0 1-1.3 1.4-4 1.4-3.6 0-4-.2-4-2.6 0-2.6 0-2.6-6.6-2.2-4.2.3-6.9.9-7.5 1.9-.7 1.2-1 1.2-1.8 0-1-1.5-7.1-.6-8.3 1.3-.5.8-1.3.8-2.8-.2-1.5-.9-2.6-1-3.9-.2-1.9 1-15.7.6-21.3-.6-1.5-.4-4.8-.3-7.3 0-4.5.7-4.5.7-4.5 4.8 0 4 0 4-3.2 3.4-7.6-1.6-9.9-1.8-11.5-1.1-1.7.7-1.6.8.2 1.6 1.6.8 1.5.8-.7.4-1.7-.3-2.8-.1-2.8.5s-1.4 1.7-3.1 2.4c-2.8 1.2-2.9 1.4-1 1.9 3.4.8 2.4 2.7-1.4 2.7-2.9 0-3.5.4-3.3 1.7.2 1.5-.4 1.8-3.5 1.8-2.8 0-4.3.6-5.6 2.4-1.3 1.6-2.4 2.1-3.8 1.7-1.4-.4-2.9.3-5.1 2.4-3.5 3.3-4.2 6-1.5 6 1.6 0 1.6.1 0 1.7-.9 1-2.7 1.8-4 1.8-1.7 0-2.3.7-2.5 3.2-.2 1.9.1 3.3.7 3.3s1.1-.4 1.1-.9.8-1.1 1.8-1.5c.9-.3 2.5-1.1 3.5-1.8 2-1.5 5-.1 5.5 2.5.5 2.4-4.2 4.4-6.3 2.7-1.3-1.1-1.5-.8-1.5 1.8 0 2.2-1 3.9-4 6.6-3 2.7-4 4.4-4 6.6 0 2.8-.2 3-4 3-2.8 0-4 .4-4 1.4 0 .8.4 1.6 1 1.8 1.3.4-1 7.8-2.5 7.8-.7 0-1.8 1.8-2.5 4-1.7 5.3-4 5.3-4 .1 0-2.2.5-4.2 1.3-4.4.9-.4.8-.8-.3-1.6-1.8-1.2-1.7-1.3-2.3 6.2-.3 4.6-.1 5.7 1.1 5.5.8-.2 1.7.3 1.9.9.3.7 0 1.3-.6 1.3s-1.1.6-1.1 1.4c0 .8-1.7 3.3-3.7 5.5-3.6 4-3.9 4.1-9.5 4-3.2-.1-6.1-.6-6.5-1.2-.6-1.1 1.7-2.8 2.9-2.1.4.3.8-.4.8-1.5 0-2.3-1-2.7-2.7-1-.9.9-1.6.8-2.8-.5-.9-.9-1.4-1.6-1.2-1.6.5 0-3-7.1-5.8-11.7-1.5-2.5-2.7-3.3-4.8-3.3-1.6 0-2.6.4-2.2 1 1.4 2.2-1 .8-3.7-2.2-2.8-3.2-2.3-5.3 1-4.1.8.3 1.8 0 2.2-.8 1.1-1.6-7.6-9.8-10.5-9.9-1.9-.1-1.9-.2.2-1.2 1.3-.6 2.5-1.9 2.8-2.9.4-1.1 1-1.9 1.4-1.9.4 0 1.5-1.8 2.5-4.1 1.4-3.1 1.7-5.4 1.2-9.7-1.8-16.2-1.9-31.1-.2-37.9 1-3.7 2.2-8.8 2.8-11.3 2.8-11.9 10.6-29.5 17.5-39.3 1.8-2.6 3.3-5 3.3-5.5 0-.4 2.4-3.6 5.3-7.1 5.6-6.9 14.7-14.7 21.2-18.2 2.2-1.2 4.2-2.5 4.5-2.8.9-1.2 13.5-6.9 18-8.2 2.5-.7 4.9-1.6 5.5-2.1.5-.4 2-.8 3.5-.8 1.4 0 3.2-.5 4-1.1 1.2-.8 1-1-1-.6-1.4.3-5.2.9-8.5 1.2-7.6.9-12.3 3-26.3 11.8-12.2 7.7-20.4 15.5-27.9 26.5-2.4 3.5-4.3 6.5-4.3 6.8 0 .3-1.3 2.4-2.9 4.8-3.2 4.6-10.1 19-10.1 21 0 .7-.9 2.5-2.1 4-1.1 1.5-1.9 3.3-1.6 4 .5 1.2-1.1 8.2-3.1 13.6-.3.8-1.1 3.7-1.7 6.5-.7 3.6-1.5 4.9-2.5 4.6-.8-.2-2.2-.6-3.2-.8-1.6-.5-1.9.1-3.2 5.9-.4 1.9-1.3 2.8-2.6 2.8-2.1 0-2.7-1.5-1-2.5.5-.3.7-1.2.3-2-.3-.8 0-1.5.7-1.5 1.4 0 .5-7.1-1-8-.4-.3-1-1.4-1.3-2.5-.2-1.1-.3-.3-.2 1.8.3 3.9-1.3 8.7-3 8.7-1.5 0-3.5-4.9-2.4-5.6.6-.3.7-1.4.4-2.5-.4-1-.2-1.9.4-1.9.6 0 1.4-1.2 1.7-2.7.4-1.5 1.3-3.4 2.1-4.1 1.1-1.2 1.8-5.4 1.4-8.9-.1-.6.3-1.4.9-1.8.5-.3 1-1.5 1-2.6 0-1 .5-1.9 1-1.9.6 0 1-1.2 1-2.6 0-1.4.8-3.8 1.9-5.2 1-1.5 2.2-3.8 2.6-5.2.4-1.4 1.8-4.1 2.9-6 1.2-1.9 3-5.2 4.1-7.3 1.1-2.1 3.5-5.3 5.2-7.2 1.8-1.9 4.6-5.3 6.2-7.5 6.9-9.5 24.4-25.6 32.7-30.1 2.7-1.5 7.4-4 10.4-5.7 4.8-2.6 19.8-8.2 25.5-9.5 4.5-1 20.5-.6 28 .7zm274.3 3.9c2.8 3.4-.6 7-6.1 6.5-2.8-.3-3.2-.7-3.5-3.5-.3-2.6.1-3.2 2-3.6 4.5-.8 6.6-.7 7.6.6zm-536.9 13.2c1.6 12.4 1.1 15.9-2.2 16.3-2.1.3-2.8-.2-3.3-2.2-.3-1.4-.3-3.8.1-5.4.7-2.4 1.3-7.6 1.5-12.2.1-.8.3-3.1.6-5 .8-5.1 2-2.1 3.3 8.5zm611.9 1.3c-.5 2.4-4.7 4.3-7 3.1-2.5-1.3-1.9-4 1.1-5.6 3-1.4 6.4 0 5.9 2.5zm9.7-.3c0 2.5-.4 3.1-2.7 3.3-2.5.3-2.8 0-2.8-2.7 0-3 1.2-4.1 4-3.8 1 .2 1.5 1.3 1.5 3.2zm8.5.1c0 1.9-.5 2.4-2.5 2.4-2.9 0-3.3-2.1-.9-4.4 2-2 3.4-1.2 3.4 2zm-92.4.8c.8.8 1.4 1.9 1.4 2.4 0 1.4-4.3 3.2-6.5 2.8-1.1-.3-2.3-.5-2.6-.5-.4-.1-1-.9-1.3-1.8-1.4-3.6 6-5.9 9-2.9zm-528.7 14.2c1.2 11.7.9 13.9-1.6 14.9-1.7.6-3.6-1.3-2.7-2.6.4-.7 1.3-15.2 1.4-22.4 0-1.8.4-2.5.9-2 .5.6 1.4 6 2 12.1zm-88.9 3.1c0 3.3-.1 3.4-3.1 2.9-4-.6-5.2-1.8-4.7-4.7.2-1.5 1.2-2.5 2.8-3 3.4-.8 5 .7 5 4.8zm5.8-.9c.2 1.8-.1 3.2-.7 3.2s-1.4 0-1.8.1c-1.3.1-2-4.5-1-5.9 1.6-2 3.2-.8 3.5 2.6zm11.7.2c0 3.1-.3 3.5-2.5 3.5-1.9 0-2.6-.6-2.8-2.3-.5-3.6.5-5.4 3-5 1.9.2 2.3.9 2.3 3.8zm-29 2.7c-.6 4.2-2.8 6.4-3.3 3.3-.3-1.6 2.5-6.9 3.6-7 .2 0 .1 1.7-.3 3.7zm62.3-1.5c-.2 1.7-1 2.3-2.8 2.3-1.8 0-2.6-.6-2.8-2.3-.3-1.9.1-2.2 2.8-2.2 2.7 0 3.1.3 2.8 2.2zM54 351c0 .5-.4 1-1 1-.5 0-1-.5-1-1 0-.6.5-1 1-1 .6 0 1 .4 1 1zm753.4 12.9c.2.3-.4 1.6-1.5 2.9-1.4 1.8-2.6 2.3-5.1 2-2.8-.2-3.4-.7-3.6-3.1-.3-2.7-.3-2.7 4.8-2.6 2.8.1 5.2.5 5.4.8zm-610.3 21.7c.4.2.7 3.4.7 7.1-.1 14.8.1 16 2.2 16.6 1.4.4 2.1 1.4 2.2 3.9.3 5.8-.1 8-1.8 9.9-1.2 1.3-1.4 2.8-.9 5.8.4 2.7.3 4.1-.4 4.1-.6 0-1 .6-.9 1.2.2.9-1.7 1.4-6.5 1.6-8 .3-9.9-.7-8.8-4.6.4-1.5.5-6.5.1-11.2-.9-12.6-.4-24.3 1.6-33.8.4-2.1.8-2.2 6.2-1.6 3.1.3 6 .8 6.3 1zm-20.8 7.1c-.7.2-1.3 2.1-1.3 4.1-.1 3.1-.2 3.4-1.1 1.9-1.5-2.5-.3-6.7 1.9-6.6 1 0 1.2.3.5.6zm617.2 4.3c0 2.5-.5 3.6-1.7 3.8-1.2.2-1.8-.3-1.8-1.5 0-1.1-.5-2.4-1.1-3-1.6-1.6-.1-3.5 2.4-3.1 1.8.2 2.2 1 2.2 3.8zm9.1-.3c.4 1.3.2 2.9-.4 3.5-1.7 1.7-3.9-.6-4-4.1 0-2.4.3-2.8 1.9-2.4 1 .3 2.2 1.6 2.5 3zm-17.6-.3c0 2.7-2 4.8-3.6 3.8-1.4-.9-1.4-4.5 0-5.4 2.1-1.4 3.6-.8 3.6 1.6zm-741.5.7c.8 2.4.7 2.4-2.1 3.3-2.9.9-5.2-1.8-3.4-3.9 1.8-2.2 4.8-1.8 5.5.6zm131.5 4.8c0 .6-.4 1.3-1 1.6-.5.3-1-.1-1-.9 0-.9.5-1.6 1-1.6.6 0 1 .4 1 .9zm-132.2 6.4c.7.6 1.2 2.4 1 4.1l-.3 3.1h-14l-.3-3.3c-.5-5.1 1.1-6.4 7.2-5.6 2.8.4 5.7 1.1 6.4 1.7zm76.2 6.2c1.4 3.6.2 5.7-2.9 5.3-2.7-.3-3.9-3.2-2.7-6.4.9-2.3 4.6-1.7 5.6 1.1zm11.8 2.3c.3 3.9.1 4.2-2.2 4.2-3.1 0-4.4-3.6-2.6-7 1.9-3.5 4.5-2.1 4.8 2.8zm-22.5-2.6c.2.7-.3 1.9-1.2 2.6-1.4 1.2-1.4 1.3.2.8 1.1-.4 1.7 0 1.7 1 0 1.2-.6 1.5-2.2 1-1.3-.3-2.8-.6-3.4-.6-.7 0-1.4-.9-1.7-2-.6-2.5.1-2.6 2-.3 1.3 1.6 1.4 1.6.9.1-.4-1.2 0-1.6 1.2-1.2 1.4.5 1.3.3-.2-1-2-1.6-1.9-1.6.1-1.6 1.2 0 2.3.6 2.6 1.2zm41 .2c.3.8.3 2.4 0 3.5-.8 3-7.3 3.1-7.3.1 0-1.3-.7-2-2-2-1.1 0-2-.7-2-1.5 0-2.1 10.5-2.2 11.3-.1zm15.2-.3c.9 1.4.4 1.8-3.7 2.4-3.6.6-5.5-.5-4.3-2.5.8-1.3 7.2-1.3 8 .1zm-148.9 9c.9 1.6-1.8 3-3.3 1.7-.7-.6-1.3-1.4-1.3-1.9 0-1.3 3.8-1.1 4.6.2zm28.2 2.6c.4 3.7-.5 4-8.7 3.3-4.4-.4-5.7-.9-5.9-2.3-.8-4.1.4-4.8 7.5-4.5l6.8.3.3 3.2zm173.6 1.9c2.5 2.5 1.4 7.4-1.7 7.4-1.1 0-3.9-6.9-3.2-8 .9-1.5 3.2-1.2 4.9.6zm-51.6 13c.6.2 1.2 1.4 1.2 2.7 0 4.4-2 5.8-7.1 5.1-4.1-.6-4.7-1-5.8-4-.7-1.9-1-3.8-.6-4.3.5-.9 9-.5 12.3.5zm170.4 7.5c-.2 3-.8 8.3-1.3 11.9-.5 3.6-.9 8.6-.9 11.1 0 3.1-.5 4.9-1.4 5.2-1.9.7-2.5-2.1-1.7-7 .4-2.1.8-8.7 1-14.8.1-7.2.6-11.2 1.4-11.7 2.4-1.5 3.2 0 2.9 5.3zM140 453.5c0 .8-.9 1.5-2 1.5s-2-.7-2-1.5.9-1.5 2-1.5 2 .7 2 1.5zm42.5-.5c1.2 2-.6 5-3 5-2.2 0-4.1-3.3-2.9-5.2.7-1.1 5.2-1 5.9.2zm233.9 2.6c1.2.5 1.3.9.3 1.9-1.3 1.4-4.1 0-3.1-1.6.6-1.1.8-1.1 2.8-.3zm4.1 5.4c-.3.5-1 1-1.6 1-.5 0-.9-.5-.9-1 0-.6.7-1 1.6-1 .8 0 1.2.4.9 1zm-297.9 6.2l.6 2.1 1.7-2.2c2.6-3.4 6.6-2.6 6.6 1.3 0 2.4-.5 3-2.7 3.3-1.4.2-2.9-.1-3.2-.6-.4-.5-3.1-.7-6.1-.4-4.5.5-5.6.3-6.1-1.1-1.2-3 .3-4.6 4.5-4.6 3.2 0 4.1.4 4.7 2.2zM81 468c0 .5-.4 1-1 1-.5 0-1-.5-1-1 0-.6.5-1 1-1 .6 0 1 .4 1 1zm230.3 7.7c-.3.7-1.1 1.3-1.9 1.3-1.7 0-1.9-3.7-.1-4.3 1.5-.5 2.7 1.2 2 3zm456.2 2.3c.3.5-.1 1-1 1s-1.3-.5-1-1c.3-.6.8-1 1-1 .2 0 .7.4 1 1zm-587.7 4.7c.3 3.5 0 4.2-1.9 4.8-2.6.9-3.9-.8-3.9-5.1 0-3.7.7-4.6 3.5-4.2 1.6.2 2.1 1.2 2.3 4.5zM38.4 484c2.1.7 2.6 1.6 2.6 4.2 0 3.2-.2 3.3-4.2 3.5-5.1.3-7-1-6.1-4.6 1-4.1 3-4.9 7.7-3.1zm295.1 4c.3.5-.1 1-.9 1s-1.8-.5-2.1-1c-.3-.6.1-1 .9-1s1.8.4 2.1 1zm-115.3 10.7c-.3 3.3-.1 5.3.5 5.3.7 0 1.1 4.1 1.2 10.4l.1 10.5-3.3-1.1c-3.7-1.3-5.9-2.7-5.3-3.7.3-.4-1.1-.5-3.1-.3-2.3.3-3.8 0-4.4-.9-1.2-2-1.1-6.6.2-9.2.7-1.2 1.2-3.3 1.1-4.8 0-1.5.6-3.3 1.4-4 .8-.6 1.4-2.7 1.4-4.6 0-2.1.4-3.2 1-2.8.6.4 1.7.1 2.5-.5 1.2-1 1.7-.8 2.4 1.1.5 1.3 1 1.7 1.1.9 0-1.3.1-1.3 1 0 .7 1.1 1 .3 1.1-3 .1-4 .2-4.2.8-1.5.4 1.6.6 5.4.3 8.2zm549.8-8.2c3.4 1.8 3.8 3 1.2 4.4-3.9 2.1-8.6-1.5-6.1-4.5 1.4-1.7 1.4-1.7 4.9.1zm73 1.3c0 1.4-2.4 3.2-4.2 3.2-2.7 0-3.5-3-1.3-4.6 1.8-1.3 5.5-.3 5.5 1.4zm-663-1.4c0 1.1-1.9 1.5-2.5.6-.3-.5.1-1 .9-1 .9 0 1.6.2 1.6.4zm608.8 2.8c.3 1.3-.3 1.8-2.2 1.8-2 0-2.6-.5-2.6-2.1 0-1.5.5-2 2.2-1.7 1.3.2 2.4 1.1 2.6 2zm-447.4 3.7c-.5.6-3.3-3.1-3.3-4.4-.1-.6.8.1 1.9 1.5 1 1.4 1.7 2.7 1.4 2.9zM748 493c0 .5-1 1-2.2 1-1.9 0-2-.2-.8-1 1.9-1.3 3-1.3 3 0zm-707.4 6.5c.4.8.3 2.6 0 4-.5 2-1.3 2.5-3.9 2.5-5 0-7.1-1.9-5.8-5.3.9-2.3 1.6-2.7 5.1-2.7 2.7 0 4.3.5 4.6 1.5zm530.6-.6c.5.1-.2 1.2-1.3 2.5-1.2 1.4-2.7 3.5-3.3 4.8-1.2 2.5-11 10.6-15.3 12.8-1.5.8-5.3 3.1-8.3 5.1-7.6 5-42.7 21.9-45.5 21.9-.8 0-1.5.4-1.5.8 0 .9-4.7 2.7-9.7 3.7-1.8.4-3.3 1-3.3 1.5 0 .4-3.2 1.6-7 2.5-3.9.9-7.3 2.1-7.6 2.6-.3.5-1.4.9-2.4.9s-2 .4-2.2.8c-.3.9-16.5 6.6-34.3 12.1-22.1 6.8-55.3 8.4-61 2.9-.6-.7.5-.8 3.2-.3 10.6 1.7 25.6 1.2 41.3-1.4 5.8-.9 26.4-7.4 39-12.2 4.1-1.5 10.9-4 15-5.5 22.9-8.2 46.5-19.1 72-33.3 18.2-10.2 24.2-14.6 26.6-19.7 1-2.1 2.1-3.1 3.2-2.9.9.2 2 .4 2.4.4zM333 503.4c0 3.1-2.8 5.6-4.1 3.5-1.3-2.1-1.1-3 .9-4.5 2.5-1.9 3.2-1.7 3.2 1zm-139.2 5.4c.3 1.6-.2 2.2-1.6 2.2-2.1 0-3.6-2.5-2.6-4.1 1-1.7 3.9-.5 4.2 1.9zm-16.8 2.3c0 2.4-2.3 2.1-2.8-.4-.2-1 .3-1.7 1.2-1.7 1 0 1.6.9 1.6 2.1zm16.8 3.7c.2.7-.6 1.2-1.7 1.2-2.1 0-2.7-1.1-1.4-2.4.9-.9 2.6-.2 3.1 1.2zm-153.4.8c1.4 3.7.7 4.4-4.4 4.4-5.2 0-6.9-1.3-5.6-4.5.8-2.1 9.2-2.1 10 .1zm525.6.9c-.7.8-1.7 1.5-2.2 1.5-.6 0-.5-.7.2-1.5s1.7-1.5 2.2-1.5c.6 0 .5.7-.2 1.5zm-399.2 3.9c.5 3.8-.4 4.2-7.8 3.8-5.6-.4-6.1-.6-5.8-2.5.2-1.6 1.1-2.3 3.3-2.5 1.7-.2 3.4-.8 4-1.3.5-.6 2.1-.9 3.5-.7 1.9.2 2.6 1 2.8 3.2zm164.2.6c0 .5-.2 1-.4 1-.3 0-.8-.5-1.1-1-.3-.6-.1-1 .4-1 .6 0 1.1.4 1.1 1zm35-.1c0 .5.3 1.6.6 2.5.3.9.2 1.6-.4 1.6-.5 0-1.2-1.1-1.4-2.5-.3-1.4-.1-2.5.3-2.5.5 0 .9.4.9.9zm9.3-.2c-.7.2-1.9.2-2.5 0-.7-.3-.2-.5 1.2-.5s1.9.2 1.3.5zM559 523c.8.5 1.2 1.1.9 1.4-.7.8-4.9-.5-4.9-1.5 0-1.2 2.1-1.1 4 .1zm204.8 1.1c.2.9-.5 1.9-1.4 2.3-1.9.7-4.4-1-4.4-3.1 0-2 5.4-1.3 5.8.8zm-390.9.5c.7.6-.2 1.2-2.4 1.6-1.1.1-2.4.7-2.8 1.3-.5.6-.6.2-.3-.8s.6-2.3.6-2.8c0-.9 3.8-.3 4.9.7zm192.3.6c-.7.7-1.2.8-1.2.2 0-1.4 1.2-2.6 1.9-1.9.2.3-.1 1.1-.7 1.7zm162.6.1c.3 1.2-.3 1.7-2.2 1.7-2.9 0-4.4-1.9-2.5-3.1 2-1.3 4.3-.6 4.7 1.4zm-169 1.7c1.2 1.2 2.2 1.6 2.2 1 0-.5 1-1 2.3-1 2 .1 2.1.2.5 1.4-2.2 1.6-2.4 5.6-.3 5.6 2.6 0 1.2 4-3 8.6-.5.7-1.9 2.4-2.9 3.9-2.4 3.2-12.4 11.2-18.8 14.8-2.6 1.5-5.4 3.4-6.3 4.3-3.1 3.1-9 5.5-17 6.9-4.4.8-11.1 2.1-15 3-8 1.7-17.1 2-18 .5-.7-1.2 3-4.6 6-5.6 1.1-.3 2.9-1.4 4-2.3 1.1-1 4-2.6 6.5-3.6 2.5-1.1 4.7-2.2 5-2.6.3-.4 5-2.8 10.5-5.5s12-6 14.5-7.4c2.5-1.4 6.1-3.2 8-4 5.6-2.2 9.4-5.1 7.9-6.1-1.7-1 0-1.7 5.1-2.1 2.6-.2 3.5-.7 3.4-2.1-.1-.9.3-1.7.8-1.7s-.1-1.4-1.3-3.1c-1.5-2.2-2.7-2.9-4.2-2.5-1.5.4-1.7.2-.9-.6.9-.9 2.2-.7 5.1.9 2.5 1.3 4.3 1.8 5.2 1.2 1.1-.7.9-1-.8-1.5-1.3-.4-2.3-1-2.3-1.5 0-1.5 1.5-1 3.8 1.1zM58 529c0 2.4-2.6 3.8-4.2 2.2-1.6-1.6-.2-4.2 2.2-4.2 1.3 0 2 .7 2 2zm155-.1c1.6 3.2 4.2 5.2 5.6 4.7 1.7-.7 2 5.9.4 6.9-1 .6-8.1-4-8.8-5.7-.2-.4-.9-.8-1.7-.8-1.9 0-3.6-2.5-2.9-4.4.3-.9 1-1.4 1.4-1.1.5.3 1.1.1 1.5-.5 1-1.6 3.3-1.2 4.5.9zm-173.6 1.7c.9.8 1.6 2.4 1.6 3.5 0 1.6-.7 1.9-4.2 1.9-2.4 0-4.8-.4-5.4-.8-1.7-1.2-2.3-3.9-1.1-5.1 1.6-1.6 7.3-1.3 9.1.5zm68.4 3.2c.5 3.1-1.5 5.2-4.7 5.2-3 0-5.1-1.6-5.1-4 0-2.7 2.3-4.1 6-3.8 2.8.2 3.6.8 3.8 2.6zm705 4.4c3 1.5 2.8 2.4-1 4.2-3.6 1.8-7.1 2-9.8.6-1.3-.7-2.1-.7-2.5 0-.7 1.2-4.4 1.4-4.6.2-.7-4.6-.3-5.7 2.4-6 1.5-.2 2.7.2 2.7.8 0 .7.7.6 2-.3 2.1-1.5 7.1-1.2 10.8.5zm-24.2 1.4c.8 3.2-.6 4.6-4.2 4.2-5.1-.6-4.6-6.8.5-6.8 2.5 0 3.2.5 3.7 2.6zm35.2.5c.2 2.1-.2 2.7-2.2 3.1-3.9.8-5.2-.5-3.8-3.7 1.6-3.6 5.6-3.2 6 .6zm18.2.5c0 2.3-2.7 3.6-4.9 2.4-2.5-1.3-2.7-2.9-.4-4.5 1.9-1.4 5.3 0 5.3 2.1zm-110.2-1.1c.8.7.9 4.5.1 4.6-.5 0-3 .1-5.6.1-4.2.1-4.8-.2-5.1-2.1-.4-2.6 2.9-4.1 7.3-3.4 1.7.3 3.1.7 3.3.8zm25.7 1.5c0 2.3-.4 2.5-4.7 2.8-4.5.3-4.8.2-4.8-2.2 0-2.9 1.2-3.6 6-3.3 3 .2 3.5.5 3.5 2.7zm11.8-1.6c.3.8 0 2.2-.7 3.2-1.8 2.4-4.6 1.1-4.6-2.1 0-2 .5-2.5 2.4-2.5 1.3 0 2.6.6 2.9 1.4zm-728.9 5.7c.2.2.2 1.7-.1 3.2-.5 2.7-.8 2.8-5.7 2.5-4-.2-5.2-.7-5.4-2.1-.8-4 .5-5 5.8-4.5 2.8.3 5.2.7 5.4.9zm169.1 4.5c1.3 1.4 2.9 2.3 3.5 1.9 2-1.2 6 .4 6 2.4 0 2.7-3.5 3.2-6.3 1.1-1.3-1.1-3.3-1.7-4.4-1.4-2.1.6-3.7-.9-4.6-4.4-.7-3.2 2.7-2.9 5.8.4zM180 549c2.2 0 3.3 5.5 1.4 7.1-2 1.7-8 0-9.4-2.6-2-3.7-.6-5.9 3.1-5.1 1.8.3 3.9.6 4.9.6zm387 2c.8.5 1 1 .4 1-.7 0-4.3 3.1-8 6.8-3.8 3.8-8.9 8.2-11.4 9.9-5.4 3.6-15.1 8.5-15.7 7.9-.9-.9 1-7.6 2.2-7.6 3.3 0 23.2-12 28.2-17.1 2.1-2.1 2.3-2.2 4.3-.9zm-372.2 3.9c.3.8-.5 1.1-2.4.9-1.5-.2-2.9-.8-3.1-1.5-.3-.8.6-1.1 2.3-.9 1.6.2 3 .9 3.2 1.5zm-174.4 0c1.2 1.8.9 9.2-.3 10.4-2.6 2.5-5.3-5-3.5-9.7.7-1.7 2.9-2.1 3.8-.7zm18 3.7c1 .4 1.6 1.8 1.6 3.5 0 2.7-.3 2.9-3.9 2.9-2.2 0-4.6-.3-5.5-.6-1.6-.6-2.2-4.5-.9-5.7.8-.9 6.6-.9 8.7-.1zm158 6c.9 2.2-.1 3.4-2.9 3.4-3.6 0-5.5-1-5.5-3.1 0-1.5.7-1.9 3.9-1.9 2.6 0 4.1.5 4.5 1.6zm624.6 6c0 2.2-2.7 2.8-6.1 1.4l-3-1.3 2.3-1.1c2.9-1.5 6.8-.8 6.8 1zm-294.6 8c-1 3.8-2.5 8.2-3.4 9.9-.9 1.6-2.1 4.8-2.8 7-4.2 14.5-6.6 22.1-7.3 22.9-.5.6-.9 2-.9 3.3 0 1.3-.4 2.3-.8 2.3s-1.4 1.7-2.1 3.7c-1.7 4.8-3.6 8.8-9 18.6-2.3 4.3-3.9 8.2-3.6 8.7.3.5 0 .7-.8.4-.9-.3-1.8.9-2.7 3.8-.8 2.4-1.7 4.5-2 4.8-.5.5-2.4 4.3-3.4 7-.3.8-1.9 3.7-3.6 6.5-1.6 2.7-3.3 5.7-3.7 6.5-2.2 4.8-11.7 15.2-14.3 15.6-.8.2-2.2 1.3-3 2.6-2.2 3.3-8.2 9.4-10 10-1.1.4-1.6-.1-1.6-1.3s.5-1.8 1.3-1.5c.8.3 1.3-.2 1.3-1.3 0-1 .7-2.2 1.6-2.5.8-.3 1.3-1 1-1.5-.3-.4 1.2-2.8 3.4-5.1 4-4.3 4.9-5.7 3-4.5-.6.4-.7-.1-.3-1.2.8-2.3 8-13 9.2-13.8.5-.3 1.6-1.8 2.4-3.3.8-1.5 2.5-4.7 3.8-7.2 1.3-2.5 3.7-6.2 5.3-8.3 3.2-4.1 5-7.2 9.7-16.2 1.8-3.3 3.9-6.5 4.7-7.1 1.3-.9 1.4-1.7.5-3.5-1.2-2.8-.2-6.3 2.1-7.2.9-.4 1.6-1.6 1.6-2.7s.5-2 1-2c.6 0 1-1.3 1-2.8 0-1.5.4-3.2.9-3.8.5-.5 1.4-2.5 1.9-4.4 1.9-6.2 4.3-12.5 5.3-13.5 1.4-1.4 1.1-4.7-.3-4-.7.4-.5 0 .4-.8 2.4-1.9 5.8-9.6 5.8-13.2 0-2.3-.3-2.7-1-1.5-.5.8-1 1-1 .4s.7-1.7 1.5-2.4 1.5-.9 1.5-.5c0 .5.9 0 2-1s2.8-1.5 4-1.2c1.4.3 2 0 2-1.1 0-.8.2-1.3.5-1 .3.3-.2 3.6-1.1 7.4zm45.9-4.1c3.2.8 7 2.3 8.4 3.2l2.7 1.8-2.4.3c-3.4.5-6.3 3.2-5 4.6 1.3 1.6-1.1 6-3.5 6.4-1.1.2-2.4.9-3 1.4-.7.7-.3.8 1.2.3 1.8-.5 2.5-.1 3.2 1.8 1.3 3.4-.3 9.8-3.1 12.2-1.3 1.1-3.1 3.7-4.1 5.7-1.6 3.5-1.9 3.6-5.5 3.1-4-.6-7.2-2.8-7.2-5 0-.7.7-2.4 1.6-3.8.8-1.3 1.4-2.9 1.3-3.7-.4-3 .2-4.8 1.6-4.8.8 0 1.5-.5 1.5-1.2s1.2-2.2 2.8-3.5c3.7-3.1 1-3-5.8.1-4.4 2-5.7 2.3-8.4 1.4-1.7-.6-3.6-1.5-4.2-2-1.6-1.2-4.4.1-4.4 2.1 0 .9-1.2 2.5-2.7 3.5l-2.6 1.9.7-2.4c.4-1.3.8-3.2.7-4.2 0-1 .6-2 1.4-2.3.8-.3 1.1-1.2.8-1.9-.5-1.5 3.1-5.2 8.7-8.7 1.9-1.2 3.8-2.6 4.1-3.1 3.1-4.5 11.5-5.7 21.2-3.2zM157 583.2c0 4.2-.3 4.9-1.7 4.6-1.3-.2-1.9-1.5-2.1-4.2-.4-4.8.3-6.7 2.3-6 1.1.4 1.5 2 1.5 5.6zm210-.7c0 .8-.4 2.4-.9 3.7-.5 1.3-1.2 3.5-1.5 5-.4 1.6-1.1 2.8-1.6 2.8-1.2 0-1.3-3.7-.1-4.4.4-.3 1.1-2.4 1.5-4.6.6-3.8 2.6-5.7 2.6-2.5zm227.4 5.2c2.8 1.6 5.3 3.1 5.4 3.5.2.5.9.8 1.5.8s1.8.7 2.8 1.6c1.1 1 4.2 1.8 7.6 2.1 6.9.5 17.6 3.7 21.4 6.4 1.4 1 3.8 4.3 5.2 7.2 1.4 3 3.7 6.3 5.1 7.5 1.4 1.1 2.6 2.2 2.6 2.5 0 .2-2.7.4-6 .3-5 0-6-.3-6-1.7 0-3.4-15.9-5-23.9-2.4-1.7.6-2.2.5-1.7-.3 1.3-2.2-1.9-1.2-4.3 1.3-2.6 2.8-8.3 3.7-6.1 1 .7-.8 2.4-1.5 3.9-1.6 2.4 0 2.4-.1-.9-1.4-1.9-.7-2.9-1.4-2.2-1.4.9-.1 1-.4.2-1.4-.6-.6-2.8-3.9-4.9-7.2-2.1-3.3-5.7-8-8-10.5-2.2-2.5-4.1-5.1-4.1-5.8 0-.6-.4-1.2-1-1.2-.5 0-1-.5-1-1 0-2.1 9.2-1 14.4 1.7zm-382 7.9c1.2 3.1.6 5.5-1.6 6.3-3.2 1.2-4.5-.2-4-4.4.3-2.9.8-3.5 2.7-3.5 1.3 0 2.6.7 2.9 1.6zM39.2 597c0 1.1.1 2.6.2 3.2.1.8-1.5 1.4-4.1 1.5-3.8.2-4.3 0-4.9-2.2-.9-3.5.2-4.5 4.7-4.5 3.2 0 3.9.4 4.1 2zm180.8-1c0 .5-.4 1-1 1-.5 0-1-.5-1-1 0-.6.5-1 1-1 .6 0 1 .4 1 1zm327.5 5.9c-.3.6-1.4 1.1-2.3 1.1-1.3 0-1.3-.2.4-1.4 2.1-1.5 3-1.4 1.9.3zM543 603c0 .5-.7 1-1.5 1s-1.5-.5-1.5-1c0-.6.7-1 1.5-1s1.5.4 1.5 1zm-7 .9c0 .5-1.2 1.4-2.7 2-2.7 1.1-1.7 1 4-.5 2.1-.5 2.1-.5.2.7-1.1.7-2.6 1.9-3.3 2.6-1.6 1.6-3.2 1.7-3.2.2 0-.7-1-.9-2.6-.5-2.3.6-2.4.5-1.2-.7 1.5-1.5 6.8-4.6 8.1-4.7.4 0 .7.4.7.9zM368.7 606c-.9 3.3 2.9 7 7.1 7 3.3 0 8.1 1.8 5.7 2.1-5.7.8-10.4-.1-13-2.4-2.4-2-2.5-2.4-1.3-5.5 1.4-3.5 2.3-4.3 1.5-1.2zm-206.7-.1c0 .5-.6 1.2-1.2 1.5-1 .5-1 .7 0 1.2 1.3.6.7 2.4-.9 2.4-.5 0-.9-1.4-.9-3 0-2 .5-3 1.5-3 .8 0 1.5.4 1.5.9zm-124.2 6.3c-.3 3-.6 3.3-3.8 3.3-2.6 0-3.6-.5-3.8-1.8-.6-3.1.5-4.3 4.3-4.5 3.6-.3 3.6-.2 3.3 3zm487.7-1.2c-.3.5-1 1-1.6 1-.5 0-.9-.5-.9-1 0-.6.7-1 1.6-1 .8 0 1.2.4.9 1zm66.5 3c0 .8-2.9 3.5-3.1 2.9-.1-.2-.3-1.4-.4-2.5-.2-1.6.2-2 1.6-1.7 1.1.3 1.9.9 1.9 1.3zm-67.5 0c.3.5.1 1-.5 1-.7 0-1 .6-.7 1.4.5 1.3-2.1 4.6-3.6 4.6-1.4 0-.6-2.8.9-3.4.8-.3 1.2-1 .9-1.6-.7-1.2.2-3 1.5-3 .5 0 1.2.4 1.5 1zm28.3 2.7c1.5 2.1 2.7 2.6 5.6 2.5 3.9-.2 4.3.3 2.2 3-2.9 3.9-9.9 1.2-12-4.5-1.4-4.2 1.4-4.8 4.2-1zm35.2 1.7c0 .7-.6 1.9-1.4 2.5-1.9 1.6-3.2-.5-1.6-2.4s3-1.9 3-.1zm37 2.1c.7.8.9 1.5.6 1.5-.4 0-1.4-.7-2.2-1.5-.9-.8-1.1-1.5-.6-1.5.5 0 1.5.7 2.2 1.5zm6.3-.8c-.7.2-1.9.2-2.5 0-.7-.3-.2-.5 1.2-.5s1.9.2 1.3.5zm-35.3 1.2c0 .5-.9 1.3-2 1.6-1.2.4-3 1.6-4 2.8-2.6 2.7-2.6 1.3.1-2.4 1.9-2.7 5.9-4 5.9-2zm-347.6 1.7c2.2.8 2 2.4-.2 2.4-1 0-1.9-.7-1.9-1.5 0-1.7 0-1.7 2.1-.9zm10.5 1c.6-.4 1.9-.2 2.8.3 1.4.8.7 1-3.1 1.1-4.3 0-4.7-.2-3.6-1.5 1-1.2 1.5-1.3 2-.4.4.6 1.3.8 1.9.5zM572 623c0 .5-.7 1-1.5 1s-1.5-.5-1.5-1c0-.6.7-1 1.5-1s1.5.4 1.5 1zm47-.6c0 .2-.9.6-2 .9-1.1.3-1.8.1-1.4-.4.5-.9 3.4-1.3 3.4-.5zm-569.2 2.1c1.9.7 1.5 5.5-.5 5.6-3 .2-4.8-.2-5.5-1.4-.6-.9-1-.8-1.7.1-.4.8-2.1 1.2-3.7 1-3.8-.4-4.7-4.4-1.3-5.7 2.1-.7 9.6-.5 12.7.4zm516.8-.5c.8 0 1.4 1 1.4 2.3 0 2.9 3.7 5.4 4.3 2.9.3-1.4.6-1.2 1.5.8l1.1 2.5.1-2.5c.1-2.3.2-2.4 1.4-.8 1.8 2.5 2.5 2.2 2.3-.8-.2-2.2.4-2.9 3.3-4.1 3-1.1 3.2-1.1 1.8 0-1 .8-2.5 3-3.3 5-1 2.5-2 3.5-3 3.1-.8-.4-1.5-.2-1.5.4 0 .6.5 1.2 1.1 1.4 1.3.4-.6 5.8-2.1 5.8-.6 0-.9.4-.6.9.3.5-.1 1.4-.9 2.1-.8.7-1.5 2.5-1.5 4.1 0 1.5-.4 3-.9 3.3-.4.3-1.1 2-1.5 3.7-.3 1.7-1.2 4.5-2 6.2-2.5 5.5-5.6 15.2-5.6 17.5 0 1.1-.4 2.4-1 2.7-.5.3-1 1.5-1 2.6 0 1.6-.4 1.8-1.7 1.1-1-.5-2.4-.7-3-.5-1.5.5-1.7 4.3-.3 4.3.6 0 1 .8 1 1.7-.1 1.7-.1 1.7-1.4 0-1.8-2.3-3-2.2-2.3.3.6 2.4-3.4 7-6.1 7-1.3 0-2.3 1.2-3.2 4.1-2.5 7.5-3.4 5.7-2.7-5.7.6-9.9 2.7-21.8 4.7-26.9.4-1.1 2.2-6.7 4.1-12.5 1.8-5.8 4.6-12.9 6.1-15.8 1.5-2.9 2.8-5.9 2.8-6.7 0-.8.5-1.5 1-1.5.6 0 1-.6 1-1.4 0-.8.9-1.8 2-2.1 1.9-.6 2.8-3.9 1.3-4.8-.5-.2-.2-.2.5 0 .8.1 2 .3 2.8.3zm47.1.8c-.3.4-3.6 2.3-7.3 4.2-7.5 3.9-7.6 3.9-12.1 7.5-1.7 1.4-4.6 2.8-6.5 3.2-1.8.3-3.6 1.1-4 1.7-.4.6-1.1.7-1.5.2-.4-.5-.2-1.1.5-1.3.6-.3 1.2-1.2 1.2-2 0-1.1.7-1.4 2.5-.9 2.8.7 6.5-.8 6.4-2.7 0-.9-.2-.9-.6 0-.2.7-.9 1.3-1.5 1.3-.7 0-.7-.5.1-1.3.6-.8.8-1.6.6-1.9-.3-.3.6-.3 2 0 1.7.3 3.8-.4 6.3-2.1 2-1.4 4.7-2.8 5.9-3.1 1.1-.4 2.7-1.3 3.3-2.1 1.2-1.5 5.5-2.2 4.7-.7zm-62.5 3.7c.3 1.3.2 2.2-.3 2-.4-.3-1-.1-1.4.5-.3.5-1.1 1-1.8 1-.8 0-.8-.3.1-1.2.7-.7 1.2-2 1.2-3 0-2.7 1.7-2.2 2.2.7zm2.8-1.1c0 .3-.4.8-1 1.1-.5.3-1 .1-1-.4 0-.6.5-1.1 1-1.1.6 0 1 .2 1 .4zm41 3.7c0 .5-.4.9-1 .9-.5 0-1-.7-1-1.6 0-.8.5-1.2 1-.9.6.3 1 1 1 1.6zm3-1.7c0 .3-.4.8-1 1.1-.5.3-1 .1-1-.4 0-.6.5-1.1 1-1.1.6 0 1 .2 1 .4zm47 1.7c-1.1.8-.2.9 3.4.4 3.3-.5 4.6-.3 4.1.4-.3.6.1 1.4.9 1.7 2.2.8 2 2.4-.3 2.4-1 0-2.1-.7-2.5-1.5-.3-.9-1.8-1.5-4-1.5-3.4 0-5.2-1.1-3.9-2.4.3-.3 1.3-.6 2.2-.6 1.4 0 1.4.2.1 1.1zm-17.1.8c.7.5.9 1.1.4 1.4-.4.3-1.7-.1-2.8-.9-2.1-1.6 0-2 2.4-.5zm-14.5 2.5c-.9 1.5-2.1 2.2-3 1.9-.8-.3-1.4 0-1.4.6s-.6.8-1.4.5c-.8-.3-1.7-.1-2.1.5-.3.6-1.2 1.1-1.8 1.1-2-.1 3.6-3.9 6.6-4.5 1.5-.4 2.7-1.1 2.7-1.6s.5-.9 1-.9c.6 0 .3 1.1-.6 2.4zm5.3-.3c.1 1.5-.3 1.9-1.3 1.5-.9-.3-1.2-.1-.9.4.3.6.1 1-.4 1-1.5 0-1.4-2.3.1-3.8 1.7-1.7 2.4-1.5 2.5.9zm4-1.5c-.3.3-1.2.4-1.9.1-.8-.3-.5-.6.6-.6 1.1-.1 1.7.2 1.3.5zm15.6.1c-.7.2-1.9.2-2.5 0-.7-.3-.2-.5 1.2-.5s1.9.2 1.3.5zM492.5 635c.3.5-.1 1-1 1s-1.4.4-1 .9c.3.5.1 1.2-.5 1.6-.5.3-1 .1-1-.6s-.3-.9-.6-.6c-.4.4-.1 1.3.6 2.2 1.1 1.3.9 1.5-1.1 1.3-1.6-.2-2.4.3-2.7 1.7-1 4.6-6.5 8.5-8.8 6.2-.4-.4-.3-.7.3-.7s1.3-.9 1.6-2.1c.3-1.1 1.5-2.3 2.6-2.6 1.2-.3 2.1-1.1 2.1-1.8s1.6-2.3 3.5-3.6c1.9-1.3 3.5-2.7 3.5-3.2 0-1 1.8-.9 2.5.3zm139.5-.6c0 .3-.4.8-1 1.1-.5.3-1 .1-1-.4 0-.6.5-1.1 1-1.1.6 0 1 .2 1 .4zm26 .6c0 .5-.4 1-1 1-.5 0-1-.5-1-1 0-.6.5-1 1-1 .6 0 1 .4 1 1zm-123.5 1.5c3.3.1 5.5 1.1 5.5 2.6 0 .5-.7.9-1.5.9s-1.5-.7-1.5-1.5-.6-1.3-1.2-1.1c-.7.2-4.7 1-8.8 1.7-4.1.7-8.6 1.8-10 2.5-2 1-2.7.9-3.8-.2-1.1-1.2-1-1.4.6-1.4 1 0 2.6-.8 3.5-1.8 1-1.1 3.3-1.9 5.9-2.1 2.3-.1 4.5-.4 4.7-.7.3-.2 1.2-.1 2 .2.9.4 3 .8 4.6.9zM549 638c0 .5-.7 1-1.5 1s-1.5-.5-1.5-1c0-.6.7-1 1.5-1s1.5.4 1.5 1zm66 .8c0 .5-1.8 2.6-4.1 4.8-2.2 2.1-4.4 4.8-4.9 5.9-.8 1.8-.9 1.8-.9.2-.1-1.1 1.3-3.2 2.9-4.7 3.3-3.1 3.9-4.5 1.4-3.6-.8.3-1.2.2-.9-.4 1-1.6-.5-1.2-4.1 1.1-2 1.2-3.4 1.6-3.4.9 0-.6-1.6.5-3.5 2.6-1.9 2-3.8 3.5-4.1 3.2-.3-.3.1-1.2.9-1.9.7-.8 1.2-1.9 1-2.5-.2-.6.8-1.6 2.2-2.2 1.7-.8 2.3-1.7 1.9-2.5-.6-.8-.3-.8.9.2 1.3 1 2.4 1.1 4.8.2 1.7-.6 4.2-.8 5.5-.5 1.5.4 2.4.2 2.4-.5 0-.6.5-1.1 1-1.1.6 0 1 .4 1 .8zm-70 2.3c0 1.4-1.6 1.1-2.9-.5-1-1.2-.8-1.3.8-.9 1.2.3 2.1.9 2.1 1.4zm-506.8 3.4c-.4 4.8-1 5.5-2.5 3.4-.7-.9-2.2-1.9-3.5-2.3-2.1-.7-3-3.5-1.5-5 .4-.4 2.3-.6 4.3-.4 3.4.3 3.5.4 3.2 4.3zm212.5-.7c1.2 5-4.5 6.4-8.9 2-1.8-1.8-1.8-2.1-.4-3.7 2.4-2.7 8.4-1.6 9.3 1.7zM24 643c.9 1.7.7 2.2-1.4 3.1-3.3 1.6-5.6.5-5.6-2.6 0-2.1.5-2.5 3-2.5 1.9 0 3.3.7 4 2zm239.3-.3c.4.2.7 1.8.7 3.5 0 2.9-.2 3-3.1 2.4-1.7-.3-3.8-.6-4.5-.6-.8 0-1.4-1-1.4-2.5 0-1.4-.6-2.5-1.2-2.6-.7-.1-.2-.4 1.2-.9 2.3-.7 6.4-.3 8.3.7zm94.8 7.7l-2.1 2v-4.1c0-3.2.4-4.2 1.8-4.5 2.6-.5 2.8 4 .3 6.6zm154.9-6.9c0 .8-5.1 5.5-6 5.5-1.6 0-1.2-1.2 1.2-3.7 1.9-2 4.8-3.1 4.8-1.8zm37 1c0 .8-.4 1.5-.9 1.5s-1.4-.7-2.1-1.5c-1-1.3-.9-1.5.9-1.5 1.2 0 2.1.6 2.1 1.5zm41 5.5c0 1.1-1.1 2.7-2.5 3.6-1.4.9-2.3 2-2 2.4.3.4-.3 1.4-1.2 2.1-1.5 1.2-1.6 1.2-1-.4.4-1.1.3-1.6-.3-1.2-.6.3-1 .1-1-.4 0-.6.5-1.1 1-1.1.6 0 1-.6 1-1.4 0-.7.9-1.6 2-1.9 1.1-.3 2-1.2 2-2.1 0-.9.5-1.6 1-1.6.6 0 1 .9 1 2zm179 2c0 3.8-.2 4-3.1 4-1.7 0-2.8-.4-2.4-1 .3-.6.1-1-.5-1s-1-1-.8-2.3c.2-1.4.9-2.1 2-1.9.9.1 1.9-.2 2.3-.8 1.3-2.2 2.5-.8 2.5 3zm-101.7-2.3c-.7.2-2.1.2-3 0-1-.3-.4-.5 1.2-.5 1.7 0 2.4.2 1.8.5zm90.8 2.6c-.8.8-1.1.7-1.1-.4 0-2 1.3-3.4 1.8-1.9.3.7-.1 1.7-.7 2.3zm-279.1-.6c.8.7-2.4 2.3-4 2-.8-.1-1.6-1-1.8-2-.3-1.5.1-1.7 2.5-1.1 1.5.4 3 .9 3.3 1.1zm196.7.9c-.9.9-2.8-.6-2.1-1.8.4-.6 1-.6 1.7.1.6.6.8 1.3.4 1.7zm-6.4-.9c-1.3.2-3.5.2-5 0-1.6-.2-.5-.4 2.2-.4 2.8 0 4 .2 2.8.4zm-198.4 5.9c-.4.5-.6 1.9-.3 3.1.3 1.1.1 2.4-.5 2.7-.7.5-.8.1-.5-.9.4-.8-.2-2.7-1.1-4.2-1.5-2.3-1.6-2.5-.1-2 .9.3 1.5.3 1.5-.1-.1-.4-.1-1.4.1-2.2.1-1.1.4-.9.9.5.5 1.1.5 2.5 0 3.1zm-434.1-1.4c1.7 1.7 1.5 7.7-.2 8.4-.8.3-2.4-.4-3.5-1.5-1.2-1.2-2.6-2.1-3.2-2.1-2.2 0-.4-4.4 2.1-5.1 3.6-1 3.5-1 4.8.3zm438.2-.8c0 .3-.4.8-1 1.1-.5.3-1 .1-1-.4 0-.6.5-1.1 1-1.1.6 0 1 .2 1 .4zm-7 7c-.6.6-.5 1.6.3 2.5 1 1.4 1 1.4-.4.3-1.1-.8-1.5-2.1-1.2-3.5.4-1.9.2-1.8-2.1.8-1.4 1.6-2.5 3.6-2.6 4.2 0 1.6-4 5.7-4 4.3 0-1.2 2.8-5.8 4.7-7.8.7-.8 1.8-2.3 2.4-3.4 1-1.9 1.1-1.9 2.4-.1.8 1.1 1 2.2.5 2.7zm112 0l-2.2 2.1 1.8-3.5c1-2.1 1.9-3 2.2-2.1.2.7-.6 2.3-1.8 3.5zm21.7-3.8c-.3.3-1.2.4-1.9.1-.8-.3-.5-.6.6-.6 1.1-.1 1.7.2 1.3.5zm-419.5 2.6c-.6.6-1.5.8-1.9.4-.4-.4-.1-1.1.7-1.6 1.9-1.2 2.7-.3 1.2 1.2zm414.8.3c0 .8-.4 1.5-1 1.5-.5 0-1-.7-1-1.5s.5-1.5 1-1.5c.6 0 1 .7 1 1.5zm-7.8 3.7c-.7.7-1.2.8-1.2.2 0-1.4 1.2-2.6 1.9-1.9.2.3-.1 1.1-.7 1.7zM617 664c-.8.5-2.4.9-3.5.9h-2l2-.9c1.1-.5 2.7-.9 3.5-.9 1.3-.1 1.3 0 0 .9zm23 0c0 .5-1.3 1-3 1-1.6 0-3-.5-3-1 0-.6 1.4-1 3-1 1.7 0 3 .4 3 1zm-140.5 10.8c-1.1 7.2-1.8 3.9-.9-4 .6-5.3.9-6.3 1.2-3.8.2 1.9.1 5.4-.3 7.8zm-31.5-6.7c0 .5-.7.6-1.5.3-.8-.4-1.5-.2-1.5.4 0 .6.5 1.2 1.2 1.4.7.3.8.9.3 1.8-1.1 1.8-2.8-2.5-1.9-5.2.4-1.5.9-1.7 2-.7.8.6 1.4 1.5 1.4 2zm186-2.6c0 1.3-4.3 2.5-6.7 1.8l-2.8-.7 3.5-.7c4.9-.9 6-1 6-.4zm-44.5 1.4c.3.5.1 1.2-.4 1.5-.5.3-1.1-.1-1.5-.9-.6-1.6.9-2.1 1.9-.6zm-6.7 2.9c1.4 2.1 1.3 2.2-1.2 2.2-1.5 0-2.5-.4-2.1-.9.3-.5-.4-1.2-1.5-1.6-1.1-.4-1.8-1.1-1.5-1.6 1-1.5 4.8-.3 6.3 1.9zm-13.8.2c-2 1.3-3.3 1.3-2.5 0 .3-.6 1.4-1 2.3-1 1.5 0 1.5.2.2 1zm8.5 1c.3.6-.5 1-1.9 1-1.3 0-3.3.3-4.3.6s-.7-.2.7-1c2.9-1.8 4.6-2 5.5-.6zM16 673.5c0 2.8-3.1 4.9-6 4-1.2-.4-2-1.5-2-2.9 0-3 .7-3.6 4.7-3.6 2.8 0 3.3.3 3.3 2.5zm22 .5c0 2.3-.5 3.1-2.5 3.6-3.8.9-5.5-.2-5.5-3.6 0-2.8.2-3 4-3s4 .2 4 3zm152-1.5c0 1-1 1.5-3 1.5-2.9 0-3.8-.9-2.3-2.3 1.3-1.3 5.3-.7 5.3.8zm274.3.5c.3 1.2-.1 2.3-.9 2.8s-1.6 1.8-1.7 3c-.2 3.4-1.7 2.6-1.7-.9 0-5.5 3.2-9.1 4.3-4.9zm-248.5 2.4c.4 2.8.3 2.9-3.4 2.3-2-.3-4.5-.2-5.5.4-1.7.8-1.9.6-1.9-2 0-3.2 1.6-4 7.5-3.7 2.5.1 3.1.6 3.3 3zm49.3.1c3.2 0 7.3 2.7 6.8 4.4-.4 1.1-.8 1-2.1-.3-1.1-1-3.4-1.6-6.7-1.6-4.5 0-5.1-.2-5.1-2.1 0-1.7.4-1.9 2.3-1.3 1.2.5 3.4.8 4.8.9zM459 677c0 1.6-.4 3-1 3-1.1 0-1.4-4.3-.3-5.3 1.1-1.2 1.3-.8 1.3 2.3zm-375.4 6.3c-.4 3.8-1.2 4.3-2 1.2-.9-3.5.3-7.5 1.5-5.3.4.8.7 2.7.5 4.1zm418.4-.1c0 .5-.4.8-1 .8-.5 0-1-1-1-2.3 0-1.8.2-1.9 1-.7.5.8 1 1.8 1 2.2zm330.1.5c.6.6.6 1.9 0 3.5-.8 2.1-1.5 2.4-4.8 2.2-2.1-.1-5.5-.2-7.5-.3-3.6-.1-3.8-.3-3.8-3.5v-3.5l7.6.3c4.1.2 7.9.7 8.5 1.3zm-704.3 1.7c.7.4 1.2 1.8 1.2 3.2 0 2.4-.2 2.5-5.7 2.2-4.8-.2-5.8-.6-6.1-2.2-.3-1.1.2-2.4 1-3 1.6-1.2 7.8-1.3 9.6-.2zm22.4.8c.3.7.2 2.3 0 3.6-.4 2.2-.8 2.3-8 2-7.9-.3-10.2-1.7-8.9-5.2.5-1.3 2.1-1.6 8.6-1.6 5.3 0 8.1.4 8.3 1.2zm39.8 3.4c0 2.6-1.7 3.3-2.6.9-.8-2 .3-4.8 1.6-4 .5.3 1 1.7 1 3.1zm195.2-.1c1.6 3.6-.2 5.1-3 2.5-1.2-1.1-3.3-2.1-4.7-2.2-5-.4-2.4-2.6 3.3-2.7 2.5-.1 3.5.4 4.4 2.4zm50.7 1.4c2.5 1.9 2.6 5.1.2 5.9-.8.3-1.1 0-.8-.5.3-.5-.9-.7-2.9-.5-2.9.4-3.4.1-3.4-1.6 0-2 2.4-5.2 3.8-5.2.4 0 1.8.9 3.1 1.9zm189.1.1c-2 1.3-3.3 1.3-2.5 0 .3-.6 1.4-1 2.3-1 1.5 0 1.5.2.2 1zm-251 .9c0 .5-.7 1.1-1.5 1.5-1.5.5-2-.5-.8-1.7.9-1 2.3-.9 2.3.2zm279.7.5c.4.3-2.7.5-6.8.5-5.4-.1-6.6-.3-4.4-.9 3.4-.8 10.2-.6 11.2.4zM515 694.2l-2.1 2.3 2.1.9c2.7 1.2 2.5 2.6-.4 2.6-1.3 0-2.6.6-2.9 1.2-.2.7-.5-.7-.5-3.1-.1-5.5.3-6.1 3.4-6.1h2.5l-2.1 2.2zm-476.2 2.2c.2 1-.1 2.3-.6 2.8-1.2 1.2-3.6-2.7-2.7-4.3 1-1.5 2.9-.5 3.3 1.5zM555 695c0 .5-.4 1-1 1-.5 0-1-.5-1-1 0-.6.5-1 1-1 .6 0 1 .4 1 1zm116.3.7c-.7.2-1.9.2-2.5 0-.7-.3-.2-.5 1.2-.5s1.9.2 1.3.5zM520 697c0 .5-.2 1-.4 1-.3 0-.8-.5-1.1-1-.3-.6-.1-1 .4-1 .6 0 1.1.4 1.1 1zm12.4 2c-.4 1.9-.2 3 .5 3 2 0 1.2 2.7-1 3.3-2.8.8-19.9-.4-19.9-1.3 0-1.3 2.6-1.9 4.1-.9.8.5 3.8.9 6.7.9 4.9 0 5.2-.1 5.2-2.5 0-1.4.5-2.5 1-2.5.6 0 1-.7 1-1.5s.7-1.5 1.5-1.5c1.1 0 1.3.8.9 3zm-403.6 1.8l.3 3.3-5.3-.3c-5.2-.3-5.3-.4-5.6-3.6l-.3-3.3 5.3.3c5.2.3 5.3.4 5.6 3.6zm21.7-.8c1.1 3.4-.3 4-8.6 4-7.6 0-7.9-.1-7.9-2.3 0-1.3.2-2.6.5-2.9.3-.3 3.9-.6 8-.7 6.6-.1 7.4.1 8 1.9zm30 2.1c0 1.5-.7 2.5-1.9 2.7-2.6.5-3.8-1.1-3.1-4.1.6-2.1 1-2.4 2.8-1.8 1.4.5 2.2 1.7 2.2 3.2zm11.3-2.9c1.5 1.5 1.6 4.5.2 5.3-1.9 1.2-5-.6-5-2.9 0-3.6 2.4-4.8 4.8-2.4zm-30 2.5c.3 2-.1 2.3-2.7 2.3-2.3 0-3.1-.5-3.1-1.8 0-2.5 1-3.3 3.5-3 1.2.2 2.1 1.2 2.3 2.5zm50.7 1.3c0 3.4-.1 3.5-4 3.5-3.4 0-4-.3-4.3-2.3-.6-4.2.5-5.3 4.5-5 3.6.3 3.8.5 3.8 3.8zm555.9-2.1c1.4 2.2-.7 4.1-4.4 4.1-3.2 0-3.8-.4-4.2-2.5-.5-2.4-.3-2.5 3.8-2.5 2.3 0 4.5.4 4.8.9zm-541.4 3c0 3.5-1.2 4.5-4.6 3.7-1.9-.5-2.4-1.3-2.4-3.6 0-2.8.3-3 3.5-3s3.5.2 3.5 2.9zm431.7.7c-.3.3-1.2.4-1.9.1-.8-.3-.5-.6.6-.6 1.1-.1 1.7.2 1.3.5zm21.3.4c0 .5-.2 1-.4 1-.3 0-.8-.5-1.1-1-.3-.6-.1-1 .4-1 .6 0 1.1.4 1.1 1zm-576.1 6.9c1.7 1.1.7 4.1-1.3 4.1-1.9 0-2.9-1.7-2.2-3.5.6-1.7 1.5-1.8 3.5-.6zM128 714c0 2.9-.1 3-5 3-3.6 0-5.2-.4-5.6-1.5-1.2-3 .3-4.2 5.5-4.3 5-.2 5.1-.1 5.1 2.8zm239-.5c-.7.9-1.5 1.3-1.8 1-.3-.2.1-1.1.8-2 .7-.9 1.5-1.3 1.8-1 .3.2-.1 1.1-.8 2zm47.8-.5c-.9 1.4-1.4 1.6-2 .7-.6-1 .5-2 3-2.6.1-.1-.3.8-1 1.9zm16.2-1c0 .5-.2 1-.4 1-.3 0-.8-.5-1.1-1-.3-.6-.1-1 .4-1 .6 0 1.1.4 1.1 1zm-280 2.4c0 2.8-.9 3.2-7.1 3.5-6.4.3-9.9-1.2-9.2-3.8.5-1.9 1.3-2.1 8.4-2.1 7.7 0 7.9.1 7.9 2.4zm260 .6c0 .5-.4 1-1 1-.5 0-1-.5-1-1 0-.6.5-1 1-1 .6 0 1 .4 1 1zm19.7 1.2c-.4 1.2-.1 2.8.4 3.5 1.4 1.6-3.7 3-6 1.6-2.2-1.4-2.1-5.5.2-5.9 1.1-.1 2.1-.5 2.5-.8.3-.3 1.2-.6 2-.6 1 0 1.3.7.9 2.2zm19.3.3c0 .8-.4 1.5-.8 1.5-.5 0-1.5 1.1-2.2 2.5-1.6 3.1-3 3.2-3 .4 0-1.5.5-1.9 1.5-1.5.8.3 1.5.1 1.5-.4 0-.6-.6-1-1.2-1-.8 0-.5-.7.6-1.5 2.5-1.9 3.6-1.9 3.6 0zm297.6.1c1.5.4 2.1 1.4 2.1 3.3 0 2.7-.3 2.9-4.3 2.9-3.3.1-4.4-.3-4.6-1.6-1-4.6 1.2-6.1 6.8-4.6zm-373.2 2.6c-.6 1-6.1 1.1-6.7 0-.3-.4 1.2-.7 3.3-.7 2.1-.1 3.6.3 3.4.7zm39.7 7.3c.2 5-.1 7-1 7-.6 0-1.6.6-2 1.4-.6 1-1 1-1.6.1-.8-1.2.2-7.9 1.5-9.5.4-.6 1-2.3 1.4-3.9 1-4.1 1.4-3 1.7 4.9zM181.6 724c1 0 1.4 1.3 1.4 4.4 0 4.4 0 4.4-4 4.8-4.3.4-5-.3-5-5.2 0-3 2.5-5.3 4.8-4.5.8.3 2 .5 2.8.5zm14.9 4.5v5h-8l-.3-4.7c-.3-5 .5-5.8 5.8-5.5 2.3.2 2.5.6 2.5 5.2zm14.8-4.3c1.3 1 1.5 2.2 1 5.1-.6 3.7-.7 3.8-4.2 3.5-3.3-.3-3.6-.6-3.9-3.6-.2-1.9-.1-4 .2-4.8.7-1.7 4.6-1.8 6.9-.2zm-82.8 4.3v4h-15l-.3-4.3-.3-4.3 7.8.3 7.8.3v4zm22.3-.3c.3 3.7.2 3.8-3 3.8-4 0-5.3-.8-6.2-3.7-1.1-3.4.1-4.4 4.7-4.1 4.1.3 4.2.4 4.5 4zm18 .5l.3 4.3H156v-3.8c0-2.1.3-4.2.7-4.6.4-.4 3.2-.6 6.3-.4l5.5.3.3 4.2zm224.6-1.2c2 1.9 4.2 3.5 4.9 3.5 2.6 0 4.8 3.5 3.8 6.1-.9 2.3-.9 2.3-1.7.4-2-5.2-6.8-5.9-7.9-1.3-.4 2.1-.9 2.8-1.2 1.8-.3-.8-.9-1.7-1.3-2-1.1-.8-2-12-1-12 .5 0 2.5 1.6 4.4 3.5zm-287.9.8c2.5 1.9 1 3.7-3.1 3.7-3 0-3.4-.3-3.4-2.5 0-1.9.5-2.5 2.3-2.5 1.3 0 3.1.6 4.2 1.3zM411 738c0 .5-.4 1-1 1-.5 0-1-.5-1-1 0-.6.5-1 1-1 .6 0 1 .4 1 1zm-247 2.1c0 .6.9.8 2 .4s2-.2 2 .4c0 .6-.6 1.1-1.4 1.1-.8 0-1.6.7-2 1.5-.3.8-1.7 1.5-3.1 1.5-2 0-2.5-.5-2.5-2.3 0-1.3.3-2.7.7-3 1-1.1 4.3-.8 4.3.4zm32.4 1.5c.4.9.5 1.7.4 1.8-.2.1-1 .7-1.9 1.4-3 2.2-6.8-1.5-4.2-4.1 1.3-1.3 5.1-.7 5.7.9zm205 5.8c-.3 1.5-.8 2.5-1.1 2.3-.2-.3-.1-1.7.3-3.1.3-1.5.8-2.5 1.1-2.3.2.3.1 1.7-.3 3.1zm-277.5 6.4c1.1 2-.2 4.2-2.5 4.2-1.8 0-3.7-2.8-3-4.5.8-2.1 4.3-1.9 5.5.3zm59.6 1.2c.3.6-.3 2.3-1.5 4-1.7 2.4-2.5 2.8-4.3 2.1-2.3-.9-3.3-3.2-2.3-5.7.6-1.6 7.1-2 8.1-.4zm-59.7 13c.5 2.9-1.1 4.4-3.7 3.5-1.5-.4-2.1-1.5-2.1-3.4 0-1.5.3-3 .6-3.4 1.2-1.2 4.9 1.1 5.2 3.3zm24 .2c.3 1.3-.3 1.8-2.2 1.8-2.7 0-4.1-1.4-3.1-3.1 1-1.6 4.9-.6 5.3 1.3zm-17.8 2.9c0 2.4-2.3 2.1-2.8-.4-.2-1 .3-1.7 1.2-1.7 1 0 1.6.9 1.6 2.1zm83.8 5.8c.8.5 1.2 1.7 1 2.7-.3 1.5-1.2 1.9-4.7 1.9-5 .1-7.7-1.5-6.8-3.9.7-1.8 8.1-2.3 10.5-.7zm-104 4.8c.3 3.8 0 4.3-2.1 4.8-5 1.3-7.1.3-7.8-3.7-.7-4.7.5-6 5.6-5.6 3.9.3 4 .4 4.3 4.5zm13-3.5c1.7 1.7 1.5 3.5-.5 4-2.6.7-4.3-.1-4.3-2.1 0-3.1 2.6-4.1 4.8-1.9zm8.3.4c2.3 2 1.4 4.4-1.7 4.4-2.8 0-4.9-3.1-3.2-4.8 1.6-1.6 2.8-1.5 4.9.4zm34.9.3c0 1.3-2.6 3.2-3.3 2.4-1.4-1.3-.6-3.3 1.3-3.3 1.1 0 2 .4 2 .9zM93.3 782c.4 1.6-.2 2.6-2.6 4-3.4 2.1-4.7 1.8-4.7-1 0-1.8 4.9-6.2 6.1-5.4.4.2.9 1.3 1.2 2.4zm52.7-1.5c0 .8-.6 1.6-1.2 1.6-.7.1-2.7.3-4.5.5-3.2.4-4.9-.8-3.8-2.6.3-.6 2.6-1 5.1-1 3.2 0 4.4.4 4.4 1.5zM749 792c0 3.4-1.2 4.4-4.6 3.6-1.9-.5-2.4-1.3-2.4-4 0-2.5.5-3.6 1.8-3.9 3-.6 5.2 1.2 5.2 4.3z"/><path d="M812.3 267.7c.9.2 2.3.2 3 0 .6-.3-.1-.5-1.8-.5-1.6 0-2.2.2-1.2.5zM811.8 269.7c.7.3 1.6.2 1.9-.1.4-.3-.2-.6-1.3-.5-1.1 0-1.4.3-.6.6zM493 416.7c0 .5.5 1.5 1 2.3.8 1.2 1 1.1 1-.8 0-1.2-.4-2.2-1-2.2-.5 0-1 .3-1 .7zM496 418.5c0 1.6 2.7 2 4.8.6 1.1-.7 1-1-.3-1.5-2.8-1-4.5-.7-4.5.9zM459.5 419c.3.5 1.5 1 2.6 1 1 0 1.9-.5 1.9-1 0-.6-1.2-1-2.6-1-1.4 0-2.3.4-1.9 1zM325 425.4c0 .9.5 1.6 1 1.6.6 0 1-.4 1-.9 0-.6-.4-1.3-1-1.6-.5-.3-1 .1-1 .9zM392 481.5c0 1.3.4 1.4 2 .5 1.1-.6 2-1.3 2-1.5 0-.3-.9-.5-2-.5s-2 .7-2 1.5zM348 494c0 .5.9 1 2.1 1 1.1 0 1.7-.5 1.4-1-.3-.6-1.3-1-2.1-1s-1.4.4-1.4 1zM376 513c0 .5.5 1 1 1 .6 0 1-.5 1-1 0-.6-.4-1-1-1-.5 0-1 .4-1 1zM215 509.7c0 .4.5 1.5 1 2.3.8 1.3 1 1.3 1-.2 0-.9-.4-2-1-2.3-.5-.3-1-.3-1 .2zM469.5 691c-.3.5-.1 1 .4 1 .6 0 1.1-.5 1.1-1 0-.6-.2-1-.4-1-.3 0-.8.4-1.1 1zM558.3 578.8c-1.2.2-2.7 1-3.5 1.9-1.2 1.5-.7 1.6 4.4 1 3.2-.3 7.4-.1 9.4.4 4.7 1.4 5.5.5 1.2-1.4-3.6-1.7-8.1-2.4-11.5-1.9zM608.5 600.7c.6.4 1.5 1.7 2.1 2.7.8 1.6 2.4 2.1 7 2.3 3.2.2 6.7.5 7.7.7 2.9.7 1.9-1.1-1.9-3.3-3.4-2-17.1-4.3-14.9-2.4zM568 639.4c0 1 .8 1.6 2.2 1.6 1.2 0 1.9-.1 1.7-.3-.2-.1-1.2-.9-2.1-1.6-1.5-1.2-1.8-1.1-1.8.3zM548 678.4c0 .9.5 1.6 1 1.6.6 0 1-.4 1-.9 0-.6-.4-1.3-1-1.6-.5-.3-1 .1-1 .9zM462.1 673.6c0 1.1.3 1.4.6.6.3-.7.2-1.6-.1-1.9-.3-.4-.6.2-.5 1.3zM528.8 702.5c-.3 1.4-.1 2.5.3 2.5.5 0 .9-1.1.9-2.5s-.2-2.5-.4-2.5-.6 1.1-.8 2.5zM254.5 3c.3.5.8 1 1.1 1 .2 0 .4-.5.4-1 0-.6-.5-1-1.1-1-.5 0-.7.4-.4 1zM189 8.5c.7.9 1.5 1.3 1.7 1.1.7-.7-.7-2.6-1.9-2.6-.6 0-.6.6.2 1.5zM469.5 16c-.9 1.5.4 3 2.6 3 1.7 0 1.8-.3.7-2-1.4-2.2-2.4-2.5-3.3-1zM552.8 20.3c-2.1 3.3-2.8 5.7-2.8 9.6 0 5.2.7 5.9 4.4 4.5 1.9-.7 2.2-6.4.4-8.2-.9-.9-.9-1.7.1-3.5.7-1.3 1.1-3.4.9-4.6-.3-1.8-.7-1.5-3 2.2zM465.1 22.6c0 1.1.3 1.4.6.6.3-.7.2-1.6-.1-1.9-.3-.4-.6.2-.5 1.3zM284.5 24c-.4.6-.4 1-.1 1 .2 0 1.1.3 2 .6.9.3 1.6.2 1.6-.4 0-1.4-2.8-2.3-3.5-1.2zM572.6 24.2c.5.7.2.9-.7.6-1-.4-2 .7-3.1 3.1-5.3 11.5-5.6 13.5-2.5 17.1 1.6 1.9 1.6 2.4.3 5.1-.8 1.6-1 2.9-.5 2.9 1.3 0 4.9-3.3 4.9-4.6 0-.6.9-1.9 2.1-3 2.4-2.2 4.8-6 3-5-.7.5-1.1-.1-1.1-1.4 0-1.2.5-1.8 1-1.5 1.5.9 1.2-.4-.4-2.1-2.4-2.3-3.6-1.6-3.6 2.2 0 2.1-.4 3.3-1 2.9-1.9-1.2-1-5.2 2-8.3 1.6-1.7 2.5-3.4 2.1-3.7-.5-.3-.7-1.3-.4-2.4.3-1.1-.2-2.1-1.2-2.5-1.1-.4-1.4-.2-.9.6zM520.3 26.5c-.7.7-1.5 2.5-1.9 3.9-.3 1.5-1 2.9-1.5 3.2-1.6 1-.9 2.4 1.2 2.4 1.3 0 2 .6 1.8 1.7-.3 3.5.1 4.3 2.5 4.3 1.8 0 2.5-.7 3-3.1.8-4.2-.2-7.9-2-7.2-.8.3-1.4-.1-1.4-1.1 0-.9.4-1.6.9-1.6s.7-.9.4-2c-.6-2.3-1.3-2.5-3-.5zM527.6 29.3c.3 1 .9 1.5 1.2 1.2.3-.3 0-1.1-.7-1.8-1-.9-1.1-.8-.5.6zM417.4 36.4c-1.7 1.3-1.7 1.6-.4 2.8.8.7 1.1.9.7.4-.4-.5 0-1.8 1-2.8 1.9-2.2 1.4-2.3-1.3-.4zM527 51c0 .5.5 1 1.1 1 .5 0 .7-.5.4-1-.3-.6-.8-1-1.1-1-.2 0-.4.4-.4 1zM541.4 52.8c-.6.4-1.1 1.4-1.1 2.2 0 .8-.3 2.2-.5 3-.3.8-.3 1.2-.1.7.3-.4.9-.5 1.4-.1.5.3.9-.2.9-1.1 0-.9.5-1.3 1-1 .6.3 1-.3 1-1.4 0-2.3-1.1-3.3-2.6-2.3zM503.6 56.6c-.4.9-.4 1.9-.2 2.1.8.8 2.6-.8 2.6-2.3 0-1.9-1.6-1.8-2.4.2zM564.1 56.2c0 .9-1.3 3-2.7 4.7-1.4 1.7-2.2 3.1-1.7 3.1.4.1-.1.9-1.2 1.8-1.1 1-2.6 2.8-3.3 4-2.1 3.7 1.4 2.8 5.3-1.4 3.4-3.6 5.1-8.5 4.2-12.1-.4-1.5-.5-1.5-.6-.1zM299.5 63.3c.8 1.3 1.2 2.7.8 3-.3.4.1.7 1.1.7.9 0 1.4.4 1.1 1-.3.5-.1 1 .4 1 1.5 0 1.4-5.3-.1-6.8-.7-.7-2-1.2-3-1.2-1.7 0-1.7.2-.3 2.3zM524.5 68.1c-.4.6-.5 1.2-.2 1.5.2.3.7-.2 1-1.1.7-1.7.1-2-.8-.4zM300.3 72c.1 1.1.5 2 1 2s.7-.6.4-1.4c-.4-.9.1-1.7 1.1-1.9 1.2-.3 1.1-.5-.5-.6-1.6-.1-2.1.4-2 1.9zM454.9 73.8c-.9.9-1.9 2.3-2.3 2.9-1 1.8 2.6.4 4.1-1.6 2.5-3.2 1-4.2-1.8-1.3zM7.7 73.7C7.3 74 7 75 7 75.9c.1 1.3.3 1.3 1.1-.2 1.1-1.9.8-3.3-.4-2zM282.8 74.7c-5.5 3.4-3.5 9.4 3.1 8.9 7.4-.5 8.3-10.7.9-10.6-.7 0-2.5.8-4 1.7zM533.6 76.5c-.3.8-.1 1.5.3 1.5.5 0 1.1-.7 1.5-1.5.3-.8.1-1.5-.3-1.5-.5 0-1.1.7-1.5 1.5zM510.5 79c.3.5.8 1 1.1 1 .2 0 .4-.5.4-1 0-.6-.5-1-1.1-1-.5 0-.7.4-.4 1zM450 80c-.9.6-1 1-.3 1 .6 0 1.5-.5 1.8-1 .8-1.2.4-1.2-1.5 0zM533.3 81.6c-.7.7-1.3 2.7-1.3 4.4 0 2.1.4 3 1.3 2.7.6-.2 1.1-1.4.9-2.7-.2-1.4 0-2 .7-1.6 1.2.8 1.3-.1.3-2.5-.6-1.4-.9-1.5-1.9-.3zM14.7 82.9c-.3 1.3-1 2-1.6 1.6-.6-.3-1.1-.1-1.1.4 0 .6.7 1.1 1.5 1.1 1.7 0 2.9-2.2 2.3-4.2-.3-.7-.7-.2-1.1 1.1zM444.8 81.7c.6.2 1.8.2 2.5 0 .6-.3.1-.5-1.3-.5-1.4 0-1.9.2-1.2.5zM271.6 83.7c-.6 1.4-.5 1.5.5.6.7-.7 1-1.5.7-1.8-.3-.3-.9.2-1.2 1.2zM529.2 84c-1.8 2.9-1.5 3.8.4 1.2.9-1.3 1.4-2.5 1.2-2.7-.2-.2-.9.5-1.6 1.5zM18.1 86.2c-.1 1 .6 1.8 1.4 1.8.8 0 1.5-.8 1.5-1.8 0-1.3-.2-1.4-.9-.3-.7 1.1-.9 1.1-1.4 0-.4-1-.6-.9-.6.3zM56 85.8c0 .5.7.9 1.5.9s1.5-.4 1.5-.9c0-.4-.7-.8-1.5-.8s-1.5.4-1.5.8zM120.5 87c.3.5.8 1 1.1 1 .2 0 .4-.5.4-1 0-.6-.5-1-1.1-1-.5 0-.7.4-.4 1zM276 87.5c0 .8-1 2-2.2 2.6-2.2 1.2-2.2 1.2-.3 2 1.1.4 3 .5 4.3.2 1.2-.3 2.2 0 2.2.6 0 .7.8.8 2.4.1 1.4-.5 2.6-.6 2.8-.2.2.4 1.9 1.5 3.8 2.5 1.9.9 2.9 1.7 2.3 1.7-.7 0-1.3.5-1.3 1.1 0 .6.9.9 2 .6 1.1-.3 2-.2 2 .3 0 .4.7 1 1.5 1.4 1.2.4 1.5-.1 1.3-2.2-.2-2.5-.6-2.8-3.7-3.1-4.3-.2-5.2-1.1-5.4-4.4-.1-1.4-.5-2.3-.9-2.1-.4.3-2.1-.2-3.7-1.1-3.8-1.9-7.1-1.9-7.1 0zM8.5 91c-.3.5-.1 1 .4 1 .6 0 1.1-.5 1.1-1 0-.6-.2-1-.4-1-.3 0-.8.4-1.1 1zM3.2 94c-1 1.7-1 2 .4 2 .9 0 1.4.6 1.1 1.2-.2.7.2 2.8 1 4.5.7 1.8 1.1 3.3.8 3.3-.3 0 .3 1.7 1.4 3.7 2.5 4.9 11.1 14.1 11.7 12.7.3-.7 1.3-1 2.3-.7 3 .8 3.4-1.4.9-4.9-1.3-1.8-2.7-3.6-3.3-4-.5-.4-.6-.8-.2-.8 2.1 0-10-15-12.2-15-.6 0-1.1-.9-1.1-2s-.3-2-.8-2c-.4 0-1.3.9-2 2zM12 94.9c1.3 1.1 2.9 1.7 3.5 1.3.6-.4.2-.8-.7-1-1-.2-1.8-.8-1.8-1.3s-.8-.9-1.7-.9c-1.5 0-1.3.4.7 1.9zM516.8 95.7c-3.2 3.5-2.7 6.3.5 3 1.2-1.2 2.8-3 3.6-4 2.4-3-1.2-2.1-4.1 1zM120 95.5c-2.2 1.2-2.1 1.9.1 1.7.4-.1.4.9.1 2.1-.5 2.1-.5 2.1 1.2.5 1-1 1.6-2.7 1.4-3.7-.3-1.8-.5-1.8-2.8-.6zM46 96.1c0 .5.5.7 1 .4.6-.3 1-.8 1-1.1 0-.2-.4-.4-1-.4-.5 0-1 .5-1 1.1zM22.5 97c-.3.5.3 1 1.5 1s1.8-.5 1.5-1c-.3-.6-1-1-1.5-1s-1.2.4-1.5 1zM70 98.9c0 .6.4 1.3 1 1.6.6.3.7-.1.4-.9-.7-1.8-1.4-2.1-1.4-.7zM418.5 101l-3 .8 3.2.1c1.7 0 3.5-.4 3.8-.9.7-1.1.3-1.1-4 0zM41 102.8c0 .5.7 1.3 1.6 1.6 2.2.8 2.4.8 2.4-.6 0-.6-.3-.8-.7-.5-.3.4-1.2.2-2-.4-.8-.7-1.3-.8-1.3-.1zM47 103c0 .5.7.7 1.5.4.8-.4 1.5-.8 1.5-1 0-.2-.7-.4-1.5-.4s-1.5.4-1.5 1zM80.2 102.8c-1.8 1.2-.4 4.2 1.9 4.2 2 0 2.3-.8 1.3-3.4-.7-1.8-1.3-1.9-3.2-.8zM36 105.4c0 .2 1.1.6 2.5.8 1.3.3 2.2.1 1.9-.3-.5-.9-4.4-1.3-4.4-.5zM56 105.9c0 1 3 2.4 3.7 1.7.3-.2-.5-.9-1.6-1.6-1.2-.6-2.1-.7-2.1-.1zM0 108.5c0 .9.7 1.8 1.5 2.1.8.4 1.5 1.2 1.5 2 0 .7.6 1.1 1.4.8 1.1-.4 1.1-1 .2-2.9-.6-1.3-1.4-2.1-1.8-1.9-.5.3-.8 0-.8-.5 0-.6-.4-1.1-1-1.1-.5 0-1 .7-1 1.5zM116 109.5c0 .8.5 1.5 1 1.5.6 0 1-.7 1-1.5s-.4-1.5-1-1.5c-.5 0-1 .7-1 1.5zM259 109c0 .6.7 1 1.5 1s1.5-.2 1.5-.4-.7-.6-1.5-1c-.8-.3-1.5-.1-1.5.4zM85.2 110.1c-1.3.5-3.5.7-4.8.5-1.3-.3-2.4 0-2.4.5s.5.9 1 .9c.6 0 1 .7 1 1.6 0 1.4-.3 1.4-1.5.4-1.2-1-1.9-1-2.7-.2-.9.9-.8 1.2.3 1.2.8 0 3.4.9 5.7 2 2.2 1.1 4.5 2 5.1 2 1.5 0 2.5-6.1 1.1-7-.7-.4-.9-1.3-.6-1.9.8-1.3.8-1.3-2.2 0zM265 113.1c0 .5.5.7 1 .4.6-.3 1-.8 1-1.1 0-.2-.4-.4-1-.4-.5 0-1 .5-1 1.1zM4.6 114.9c-.3.5.1 1.1.9 1.4.9.4 1.2.1.8-.9-.6-1.6-1-1.7-1.7-.5zM265 116c0 .5.7 1 1.6 1 .8 0 1.2-.5.9-1-.3-.6-1-1-1.6-1-.5 0-.9.4-.9 1zM76.5 119c.3.5.8 1 1.1 1 .2 0 .4-.5.4-1 0-.6-.5-1-1.1-1-.5 0-.7.4-.4 1zM79.7 119.4c-.4 1 .1 1.2 1.4.9 2.3-.6 2.4-.9.5-1.6-.8-.3-1.7 0-1.9.7zM266.5 120c-.3.5-.1 1 .4 1 .6 0 1.1-.5 1.1-1 0-.6-.2-1-.4-1-.3 0-.8.4-1.1 1zM45 123.5c0 .8.5 1.5 1.1 1.5.5 0 .7.4.4 1-.3.5-.2 1 .2 1 .5 0 1.3 1 1.8 2.2.6 1.2 2.2 2.5 3.8 2.9 2.2.6 2.7.4 2.7-1.1 0-1-.7-2.5-1.5-3.4-.8-.8-1.5-2-1.5-2.6 0-.6-.4-.9-.9-.6-.4.3-1.7-.1-2.7-.9-2.5-1.9-3.4-1.9-3.4 0zM513.5 124c-.3.5-.2 1 .4 1 .5 0 1.3-.5 1.6-1 .3-.6.2-1-.4-1-.5 0-1.3.4-1.6 1zM122.1 129.6c0 1.1.3 1.4.6.6.3-.7.2-1.6-.1-1.9-.3-.4-.6.2-.5 1.3zM274.5 129.4c-1.1.7-2.9 1.6-4 1.9-1.2.3-.6.5 1.5.6 3.5 0 7.5-2 6.3-3.2-.9-1-1.6-.9-3.8.7zM257.7 131.9c-.4 1.9-.1 2 4.6 1.5 7.8-.8 8-1.7.6-2.8-4.1-.6-4.7-.5-5.2 1.3zM277.8 131.7c.7.3 1.6.2 1.9-.1.4-.3-.2-.6-1.3-.5-1.1 0-1.4.3-.6.6zM91.5 133c.3.5.8 1 1.1 1 .2 0 .4-.5.4-1 0-.6-.5-1-1.1-1-.5 0-.7.4-.4 1zM55.8 134.9c-1.3 1.6-2.5 1.9-5.5 1.4l-3.8-.5 2.9 2.6c2.2 2 3.2 2.3 3.8 1.4.5-.9.8-.6.8 1 0 1.2.6 2.4 1.3 2.6 2.3.8 7.2 1.5 6 1-.7-.3-1.3-1.3-1.3-2.3 0-.9-.8-2.6-1.9-3.7-1.3-1.5-1.6-2.5-.9-3.7 1.2-2.3.6-2.1-1.4.2zM95 135c0 .5.5 1 1.1 1 .5 0 .7-.5.4-1-.3-.6-.8-1-1.1-1-.2 0-.4.4-.4 1zM509.2 136.5c-.7 1.4-2.3 3-3.7 3.5-1.5.6-2.3 1.5-2 2.1.4.6-.1 1.7-1.1 2.4-1.1.8-1.4 1.4-.9 1.5 1.4 0 8-6.1 7.8-7.1-.2-.5.1-.9.6-.9s1.1-.9 1.4-2c.7-2.8-.8-2.5-2.1.5zM248 138c0 .5.5 1 1.1 1 .5 0 .7.4.4 1-.3.5-.1 1 .4 1 .6 0 1.1-.9 1.1-2s-.7-2-1.5-2-1.5.4-1.5 1zM498 146c0 .5.5 1 1.1 1 .5 0 .7-.5.4-1-.3-.6-.8-1-1.1-1-.2 0-.4.4-.4 1zM496.7 148.7c.4 1.1.2 1.4-.5.9-.8-.5-1.2 0-1.2 1.3 0 2.6.9 2.7 2.6.3 1.7-2.2 1.7-2.9 0-3.5-1.1-.4-1.3-.1-.9 1zM491.3 152.6c-.7.3-.9 1.3-.6 2.1.5 1.3.2 1.5-1.1 1-1-.4-1.5-.3-1.1.3.3.5-1.2 2.1-3.5 3.6-4 2.6-5.8 5.6-2 3.2 1.1-.7 2-1.6 2-2 0-.5.5-.8 1-.8 1.7 0 7-4.2 6.4-5.1-.3-.5.3-.6 1.2-.2 1.1.4 1.5.2 1.2-.7-.5-1.6-1.8-2-3.5-1.4zM259 155c0 .6 1.1 1.5 2.4 2.1 2.1 1 2.3 1.6 1.8 5.1l-.5 4 2.7-1.7c3-2 3.4-3.5.9-3.5-1.5 0-1.6-.2-.3-1 .8-.5 1.1-1 .6-1-.5 0-.2-.7.5-1.7 1.3-1.5 1.1-1.6-1.3-1.1-1.7.3-3.2 0-3.9-.8-1.3-1.6-2.9-1.8-2.9-.4zM278 156c0 .5.7 1 1.6 1 .8 0 1.2-.5.9-1-.3-.6-1-1-1.6-1-.5 0-.9.4-.9 1zM58.5 157c.3.5 1.2 1 1.9 1 .8 0 1.9.7 2.6 1.5.7.8 2 1.5 2.9 1.4 1.3 0 1.3-.2.1-.6-.8-.3-2.3-1.4-3.4-2.5-2.1-1.9-5.2-2.5-4.1-.8zM208.1 157.9c-1.3 2.4-5.8 3.3-7.6 1.4-.8-.8-1.9-1.1-2.5-.8-1.5 1-1.2 3.5.5 3.5 1.8 0 1.9 1.2.4 2.7-.9.9-.5 1.4 1.7 1.9 11.3 2.5 11.8 2.8 12.8 7.2.9 3.7 1.3 4.2 3.8 4.2 1.5 0 2.8.4 2.8 1 0 .5-.4 1-.9 1-1.4 0-2 3.8-.7 4.4.8.3.7.5-.1.5-1.8.1-5.3 3.3-4.7 4.3.9 1.4 6.9.9 14-1.4 3.8-1.1 7.1-2.4 7.4-2.9.3-.4 3.3-1.3 6.8-1.9 3.7-.8 6.2-1.8 6.2-2.5 0-.8 1.2-2.3 2.8-3.4l2.7-2-3 .3c-1.8.2-5.5-.8-9.4-2.6-6.2-2.8-7.4-2.9-11.3-1.3-1.3.5-1.8.2-1.8-.8 0-.9.8-1.7 1.8-1.9 1.6-.3 1.6-.4 0-1-1-.4-2.7.1-4.1 1.3-2.9 2.2-4 2.4-3.5.7.3-.7-.8-2.3-2.3-3.5-1.5-1.3-3-3.8-3.3-5.7-.9-4.8-6.5-6.5-8.5-2.7zM276.1 157.6c0 1.1.3 1.4.6.6.3-.7.2-1.6-.1-1.9-.3-.4-.6.2-.5 1.3zM144.8 157.7c.7.3 1.6.2 1.9-.1.4-.3-.2-.6-1.3-.5-1.1 0-1.4.3-.6.6zM248.8 160.7c-3.1.5-3.9 2.3-1 2.3.9 0 3 .7 4.6 1.5 1.5.8 3.2 1.2 3.7.9.5-.3.9 0 .9.6s.5.8 1 .5c.6-.3 1-1.9 1-3.4 0-2.6-.3-2.9-3.7-2.8-2.1 0-5 .2-6.5.4zm6.2 1.3c2.4 1.5.7 1.8-2 .3-1.4-.7-1.8-1.3-1-1.3s2.2.4 3 1zM275 162.1c0 .5.5.7 1 .4.6-.3 1-.8 1-1.1 0-.2-.4-.4-1-.4-.5 0-1 .5-1 1.1zM162.5 164c-.4.6-1.1.8-1.6.5-1.6-1.1-1 1.1.9 2.8 1.3 1.2 2.1 1.3 3.2.6 1.2-.9 1.2-1-.2-.5-1.2.3-1.8 0-1.8-1 0-1.1.5-1.4 1.6-1 1.4.5 1.5.4.4-.9-1.5-1.8-1.7-1.8-2.5-.5zM467.3 172.7c-1.8.7-1.6 2.3.2 2.3.8 0 1.5-.7 1.5-1.5s-.1-1.5-.2-1.4c-.2 0-.9.3-1.5.6zM463.2 176.2c-1.4 1.4-1.6 2.8-.3 2.8.9 0 2.4-3 1.8-3.6-.2-.2-.9.2-1.5.8zM175 180.6c0 2.6 3.4 5.4 6.5 5.4 1.2 0 2.6.5 3.3 1.2.6.6 1.5.8 1.9.4.4-.4.1-1.1-.6-1.5-.7-.5-1.1-1.3-.7-1.9.8-1.3-2-3.6-3.4-2.7-.6.4-.9.1-.8-.6.2-.7-1.1-1.5-2.9-1.9-3-.7-3.3-.5-3.3 1.6zM251.2 193.6c-1.2.8-2.7 1.2-3.2.9-.6-.3-1.4-.3-2 0-1.3.8 1.8 5.5 3.7 5.5.8 0 1.1.4.8 1-.3.6.4 1 1.8 1 1.3 0 4.5.7 7.1 1.6 2.8 1 6.3 1.4 8.7 1.1 2.1-.3 3.9-.2 3.9.3 0 .4.9 1 2 1.3 1.1.3 2 .1 2-.4s-.5-.9-1.1-.9c-.6 0-2.4-.9-3.9-2-2-1.4-2.7-2.6-2.3-4 .4-1.6 0-2-1.8-2-2.7-.1-5.9-2.1-5.9-3.9 0-.6-1.2-1.1-2.7-1.1-2.4 0-2.5.1-.9 1.3s1.6 1.4.2 2.6c-1.3 1.1-1.9 1.1-3.1.1-.9-.7-1.4-1.9-1.1-2.7.7-1.7.5-1.6-2.2.3zM228.6 194.9c-.4.5.8 1.1 2.6 1.3 3.5.3 4.9 2.4 2.1 3.1-1 .3.4.5 3.1.6 4 .1 4.7-.2 4.2-1.5-.3-.9-.6-2.1-.6-2.7 0-1.5-10.6-2.2-11.4-.8zM326.5 196.9c-.3.6-.1 1.1.5 1.1s.9.4.5.9c-.3.5-.1 1.3.5 1.6.6.4.8 1.5.5 2.6-.8 2.4.4 2.4 5.5.2 4.3-1.9 4.7-2.7 2.7-4.8-1.8-1.7-9.3-2.9-10.2-1.6zM183 198.9c0 .6.4 1.3 1 1.6.6.3.7-.1.4-.9-.7-1.8-1.4-2.1-1.4-.7zM278 198.8c0 1.7 2.7 3.2 4.6 2.6 1.1-.4.6.3-1.1 1.6-1.6 1.3-3.4 2.7-3.8 3-.5.4 1.6.7 4.5.6 2.9 0 5.6-.6 6-1.1 1.5-2 .7-3.6-2.4-4.9-5.5-2.3-7.8-2.8-7.8-1.8zM190.1 200.8c-3.3 1-3.8 3-.9 3.7 6.5 1.5 11.7 2.2 11.2 1.3-.3-.5-.1-1.5.6-2.3.6-.7.7-1.6.2-1.9-1.6-1-8.7-1.5-11.1-.8zM131 205c0 .5.5 1 1.1 1 .5 0 .7-.5.4-1-.3-.6-.8-1-1.1-1-.2 0-.4.4-.4 1zM124 207c0 .5.5 1 1.1 1 .5 0 .7-.5.4-1-.3-.6-.8-1-1.1-1-.2 0-.4.4-.4 1zM158.6 206.8c-.3.6-.1 1.4.5 1.7 1.5 1 2.5-.3 1.2-1.6-.7-.7-1.3-.7-1.7-.1zM295.6 207.6c-.8 2.2-.9 2.2 1.7 1.7 1.3-.3 3.9.3 5.8 1.1 3 1.4 3.1 1.6.6 1.1-2.7-.5-7.4 1.1-6.3 2.2.3.3-.2 1.2-1.2 2-1.6 1.3-1.5 1.4.8.9 1.4-.2 3.5-.8 4.8-1.1 1.8-.6 2.2-.4 2.2 1.3 0 1.2.8 2.6 1.8 3.1 2.4 1.3 24 2.5 29.6 1.7 4.7-.7 5.9-2.2 2.9-3.3-1.9-.7-4.3-2.8-4.3-3.7 0-.3 1.4-.3 3-.1 3.8.5 4-1.2.3-2.1-1.6-.4-3.3-1.4-3.9-2.2-.8-1.1-5-1.9-14.5-2.8-18.6-1.8-22.5-1.8-23.3.2zm36.1 4c-.3.3-1.2.4-1.9.1-.8-.3-.5-.6.6-.6 1.1-.1 1.7.2 1.3.5zM218 210.1l-2.5.7 2.5.2c1.8.2 1.4.5-1.4.9-5.2.8-5.5 2.4-.9 5.1 4.6 2.7 12.4 3.1 14.7.7.9-.8 2.9-1.8 4.6-2.2 2.7-.6 4.2-2.4 2.3-2.6-8-.7-11-1.3-12-2.1-.7-.6-1.9-.8-2.7-.5-.8.3-1.6.2-1.8-.2-.2-.4-1.4-.4-2.8 0zM131.8 212.7c.7.3 1.6.2 1.9-.1.4-.3-.2-.6-1.3-.5-1.1 0-1.4.3-.6.6zM160.4 221.1c-1.1 1.8 1.8 3 5.9 2.3 2.3-.4 3.7-.2 3.7.5 0 1.5 5.8 4.3 7.8 3.8 1.5-.4 1.5-.5 0-.6-1 0-1.8-.7-1.8-1.4 0-1.7-8.3-5.7-12-5.7-1.6 0-3.2.5-3.6 1.1zM155.8 221.7c.7.3 1.6.2 1.9-.1.4-.3-.2-.6-1.3-.5-1.1 0-1.4.3-.6.6zM203 222.4c0 .9 1.1 1.8 2.5 2.2 1.4.3 2.5 1 2.5 1.5 0 1.3 6.8 1.1 7.6-.2.3-.6 2.4-.9 4.5-.7 2.2.2 3.9 0 3.9-.3 0-.9-3.3-1.5-11.5-2.4-3.3-.3-6.8-.8-7.7-1.1-1.2-.4-1.8 0-1.8 1zM274.1 222.9c-1.1.7-1 1 .5 1.4 1.7.4 1.7.6-.3 1.2-1.3.4-2.3 1.2-2.3 1.7 0 .6-1.5.8-3.7.4-2.1-.3-4.2-.6-4.8-.5-.5 0-6.5.3-13.2.6-11.6.4-12.2.6-11.3 2.3 1.4 2.6 1.3 3-.7 2.3-1-.4-1.4-.2-1 .4.7 1.1 5.1 1.1 7.7 0 .8-.4 3.8-.3 6.5.1 13.6 2 27.9-3.3 25.8-9.6-.5-1.4-1.3-1.5-3.2-.3z"/><path d="M251.3 226.7c.9.2 2.5.2 3.5 0 .9-.3.1-.5-1.8-.5-1.9 0-2.7.2-1.7.5zM305 228c-.8.5-1 1-.5 1 .6 0 1.7-.5 2.5-1s1.1-1 .5-1c-.5 0-1.7.5-2.5 1zM278.5 228.9c-.3.5-.1 1.2.5 1.6.6.4.8 1.1.5 1.6-.3.5.1.6 1 .3 1.1-.5 1.3-1 .5-1.9-.5-.6-.7-1.5-.3-1.8.3-.4.1-.7-.5-.7s-1.3.4-1.7.9zM311.8 228.7c.6.2 1.8.2 2.5 0 .6-.3.1-.5-1.3-.5-1.4 0-1.9.2-1.2.5zM290.5 230c.3.5 1.7 1 3.1 1 1.3 0 2.4-.5 2.4-1 0-.6-1.4-1-3.1-1-1.7 0-2.8.4-2.4 1zM301.1 232.6c-1.8.8-5 1.4-7 1.4-2.7 0-3.2.3-2.1 1 1.2.7.8 1-1.5 1s-2.7.3-1.5 1c1 .6 1.1 1 .3 1-2.3 0-1.4 1.8 1.2 2.4 3.7.9 9.8-1 13.4-4.1 1.7-1.5 3.1-3 3.1-3.4 0-1.5-2.8-1.6-5.9-.3zM228.8 232.7c1.2.2 2.2.9 2.2 1.5 0 .5.5.8 1.1.6 2-.7.4-2.3-2.6-2.4-2-.2-2.2-.1-.7.3zM224 234.9c0 1.1 2.7 2.1 7.3 2.6l3.2.3-3-1.3c-5.1-2.2-7.5-2.7-7.5-1.6zM234.5 236c.3.5 1.2.7 2 .3 2.1-.7 1.9-1.3-.6-1.3-1.1 0-1.8.4-1.4 1z"/></svg>